<?xml version="1.0" encoding="UTF-8"?>
<svg id="Layer_1" xmlns="http://www.w3.org/2000/svg" version="1.1" viewBox="0 0 1000 1000">
  <circle cx="512" cy="512" r="512" fill="#faf7f3"/>
  <!-- Generator: Adobe Illustrator 29.6.1, SVG Export Plug-In . SVG Version: 2.1.1 Build 9)  -->
  <defs>
    <style>
      .st0 {
        stroke: #363a36;
        stroke-miterlimit: 10;
      }

      .st0, .st1 {
        fill: #8bc5f3;
      }

      .st2 {
        fill: #fefefd;
      }

      .st3 {
        fill: #f8ca31;
      }

      .st4 {
        fill: #fa4b49;
      }

      .st5 {
        fill: #363a36;
      }

      .st6 {
        fill: #283130;
      }
    </style>
  </defs>
  <path class="st5" d="M502.9,676.99l-26.19-54.82c-11.65-1.98-24.28-9.64-32.33-18.17-3.14-3.33-9.11-13.91-11.54-15.46-3.49-2.24-24.45-6.36-31.2-8.8-70.86-25.7-113.88-91.55-127.48-163.52-1.72-9.09.71-10.43-7.79-17.21-14.51-11.55-39.72-17.06-55.81-27.2-30.51-19.23-36.92-54.82,5.32-61.32-17.84-12.81-39.19-35.15-30.18-59.19,2.27-6.05,11.43-14.42,17.63-16.37,11.58-3.65,21.4-.8,32.54,2.57-12.27-16.93-26.68-45.3-7.87-62.9,20.59-19.28,52.82,1.61,68.88,17.39-4.63-14.49-9.2-39.51,9.74-45.77,25.4-8.4,55.62,24.91,67.07,44.46,14.16,24.18,20.78,52.93,22.18,80.82.72,14.27-2.15,29.21,3.23,42.77,3.17,7.99,7.51,10.66,15.5,13.5,20.57,7.31,56.05,2.04,77.29-3.26s58.97-19.26,61.01-46c.15-2.02.3-1.49-1.04-1.04-11.33,3.82-26.64,5.46-38.4,3.44-6.22-1.07-10.46-4.1-9.18-10.94,1.21-6.5,4.1-5.12,6.27-7.3,12.86-12.94,25.74-23.7,33.5-41,3.58-7.99,5.23-16.72,9.67-24.36l-19.84-19.82c-10.53-13.95-16.22-36.72-1.01-50.01,8.77-7.66,16.86-6.27,27-2.49-.53-22.19,25.68-51.42,46.89-31.38,1.1,1.04,6.2,9.01,7.1,8.39,15.94-30.8,46.08-15.03,50.03,14,7.33-2.96,13.89-4.81,21.7-2.22,6.26,2.07,15.57,13.12,17.22,19.78,4.69,18.91-2.91,35.63-14.87,49.8,2.6,3.38,6.2,5.9,8.93,9.13,44.79,52.98,52.49,134.81,42.83,201.84-13.86,96.19-82.01,170.67-176.79,191.21-9.33,13.61-19.63,25.11-35.02,31.95,1.94,1.47,2.03,3.84,3,5.79.56,1.12,3.52,4.66,4.3,5.95,9.36,15.56,18.74,31.11,28.6,46.35.97,1.18,2.13,1.29,3.53,1.47,8.73,1.14,23.9-1.94,31.6.4s6.33,13.57-1.5,14.61l-122.99-.11c-9.86-1.54-7.18-14.94-.06-14.94h28.5ZM609.16,130.72c-2.44-2.36-6.07-17.13-9.42-22.07-13.31-19.63-25.47,11.68-25.76,24-.09,3.98,3.47,14.92-3.53,15.28s-24.38-21.73-31.02-3.92c-3.26,8.75,1.01,18.42,6.49,25.45,2.81,3.6,14.46,15.08,18.94,13.06,29.49-29.94,75.99-30.85,110.39-8.68,11.54-8.62,20.73-30.57,10.17-42.88-10.99-12.82-21.56,10.15-29.5,6.54-4.24-1.93-6.37-21.32-8.85-27.19-9.64-22.84-20.17-2.7-26.03,9.32-1.6,3.28-5.22,17.52-11.89,11.09ZM546.89,314.99c-17.34,13.08-38.05,20.66-59.17,25.32-28.52,6.29-80.19,13.62-99.22-14.41-10.98-16.17-6.47-38.8-7.6-57.4-2.06-33.76-18.87-82.38-48.26-101.74-4.74-3.12-18.14-10.53-22.79-5.34-7.08,7.91,5.64,40.25,9.29,49.83,6.52,17.13,21.95,43.46,25.33,59.67,1.26,6.06-2.15,12.82-8.84,10.89-4.33-1.25-12.17-24.73-14.84-30.21-11.14-22.79-33.9-53.66-56.84-65.16-8.66-4.34-27.41-8.79-29.07,5.02-3.38,28.3,36.94,66.97,53.42,86.63,3.55,4.23,19.24,23.56,19.62,27.5.61,6.2-5.44,10.78-10.53,6.41-16.26-22.69-54.85-67.93-85.73-63.75-11.95,1.62-15.48,11.9-12.04,22.51,8.05,24.78,55.86,46.5,76.61,62.39,4.69,3.59,20.17,13.84,13.43,20.6-5.89,5.9-16.48-6.23-21.45-9.58-13.94-9.41-37.43-21.41-54.55-18.92-18.36,2.67-14.36,20.95-3.26,29.74,17.62,13.96,66.52,25.03,75.36,43.64,2.66,5.61,1.93,14.59,3.2,20.73,16.26,78.16,71.19,143.41,152.29,156.77,4.79,4.16,6.46,10.18,10.66,15.34,22.74,27.89,68.5,24.29,90.94-2,3.66-4.29,5.62-9.54,8.59-13.41,3.83-4.99,21.96-7.56,29.21-9.79,62.95-19.36,115.01-70.35,135.27-132.73,22.33-68.75,19.14-188.84-39.02-240.05-26.84-23.63-68.99-30.39-97.03-6-13,11.31-22.93,28-20.88,45.91,3.46,30.13,50.67,37.34,54.77,76.23,2.45,23.26-11.84,47.13-37.38,44.38-18.5-1.99-29.78-21.71-29.5-39ZM519.9,268.98c6.26.86,34.25-3.77,37.53-7.96,1.18-1.51.09-1.57-.53-2.53-3.8-5.81-7.68-11.46-9.01-18.5l-27.99,28.99ZM568.91,272.98c-2.59,16.69-11.2,35.07-6.55,52.04,3.83,13.99,19.98,20.7,31.08,10,12.31-11.86,5.64-35.43-4.03-47.05-2.29-2.75-17.96-17.15-20.5-14.99ZM521.4,676.99h22.5l-32.5-54.11c-4.88,1.46-10.15.48-15.02,1.11-1.39.18-1.74-.54-1.46,1.47l26.48,51.53Z"/>
  <path class="st2" d="M546.89,314.99c-.27,17.3,11,37.02,29.5,39,25.55,2.75,39.83-21.12,37.38-44.38-4.09-38.89-51.31-46.1-54.77-76.23-2.05-17.9,7.88-34.6,20.88-45.91,28.03-24.39,70.19-17.63,97.03,6,58.16,51.21,61.36,171.31,39.02,240.05-20.27,62.38-72.32,113.37-135.27,132.73-7.25,2.23-25.38,4.8-29.21,9.79-2.97,3.87-4.92,9.12-8.59,13.41-22.44,26.29-68.2,29.89-90.94,2-4.2-5.16-5.88-11.17-10.66-15.34-81.1-13.36-136.04-78.61-152.29-156.77-1.28-6.14-.54-15.12-3.2-20.73-8.84-18.61-57.74-29.68-75.36-43.64-11.1-8.79-15.11-27.07,3.26-29.74,17.13-2.49,40.61,9.52,54.55,18.92,4.96,3.35,15.56,15.48,21.45,9.58,6.74-6.75-8.74-17-13.43-20.6-20.76-15.89-68.56-37.6-76.61-62.39-3.45-10.61.08-20.89,12.04-22.51,30.88-4.19,69.47,41.06,85.73,63.75,5.1,4.37,11.14-.22,10.53-6.41-.39-3.93-16.07-23.26-19.62-27.5-16.48-19.66-56.8-58.32-53.42-86.63,1.65-13.81,20.41-9.36,29.07-5.02,22.94,11.5,45.69,42.37,56.84,65.16,2.68,5.48,10.51,28.95,14.84,30.21,6.69,1.94,10.1-4.83,8.84-10.89-3.38-16.21-18.81-42.55-25.33-59.67-3.65-9.58-16.37-41.92-9.29-49.83,4.64-5.19,18.05,2.21,22.79,5.34,29.4,19.36,46.2,67.97,48.26,101.74,1.14,18.6-3.38,41.23,7.6,57.4,19.04,28.03,70.71,20.7,99.22,14.41,21.12-4.66,41.83-12.24,59.17-25.32ZM585.61,220.2c-14.14,3.24-7.43,28.2,9.07,24.15,14.21-3.49,9.84-28.47-9.07-24.15ZM344.57,461.32c44.07,56.35,123.57,88.82,191.35,52.19,93.84-50.71,57.67-174.79-52.02-144.02-55.65,15.61-87.36,65.71-143.99,75.06-5.88,4.82-2.09,9.35,1.56,14.39.93,1.29,2.46,1.56,3.1,2.38Z"/>
  <path class="st4" d="M609.16,130.72c6.67,6.43,10.28-7.8,11.89-11.09,5.87-12.02,16.39-32.16,26.03-9.32,2.48,5.87,4.61,25.26,8.85,27.19,7.94,3.61,18.51-19.36,29.5-6.54,10.56,12.31,1.37,34.26-10.17,42.88-34.4-22.17-80.9-21.26-110.39,8.68-4.48,2.02-16.13-9.46-18.94-13.06-5.48-7.03-9.75-16.7-6.49-25.45,6.64-17.81,23.76,4.3,31.02,3.92s3.44-11.3,3.53-15.28c.29-12.32,12.45-43.63,25.76-24,3.35,4.94,6.98,19.71,9.42,22.07Z"/>
  <path class="st1" d="M568.91,272.98c2.54-2.16,18.22,12.24,20.5,14.99,9.67,11.63,16.33,35.19,4.03,47.05-11.11,10.7-27.26,3.99-31.08-10-4.65-16.98,3.96-35.36,6.55-52.04Z"/>
  <path class="st2" d="M521.4,676.99l-26.48-51.53c-.28-2.02.07-1.29,1.46-1.47,4.87-.63,10.14.35,15.02-1.11l32.5,54.11h-22.5Z"/>
  <path class="st3" d="M519.9,268.98l27.99-28.99c1.33,7.04,5.22,12.68,9.01,18.5.63.96,1.72,1.02.53,2.53-3.29,4.19-31.28,8.81-37.53,7.96Z"/>
  <path class="st2" d="M782.57,807.65c-3.96,5.49-15.39,10.22-22.16,10.4-5.7.15-18.51-3.71-22.05-8.02-18.05-21.96-6.62-58.94,24.92-55.92,24.96,2.39,32.57,35.14,19.29,53.54Z"/>
  <path class="st6" d="M344.57,461.32c-.64-.82-2.16-1.09-3.1-2.38-3.64-5.04-7.43-9.57-1.56-14.39,56.62-9.35,88.33-59.45,143.99-75.06,109.69-30.77,145.86,93.31,52.02,144.02-67.78,36.63-147.28,4.16-191.35-52.19ZM546.9,488.99c54.03-45.5,29.78-119.49-45.37-108.87-53.04,7.5-84.54,50.93-130.95,71.05-1.97.85-12.65,3.79-12.68,4.82,39.2,47.27,103.21,74.37,162.99,49.49,10.61-4.42,17.49-9.3,26.01-16.49Z"/>
  <path class="st5" d="M585.61,220.2c18.91-4.33,23.27,20.66,9.07,24.15-16.49,4.06-23.21-20.91-9.07-24.15Z"/>
  <path class="st2" d="M357.9,455.99c.03-1.03,10.71-3.97,12.68-4.82,46.42-20.11,77.92-63.55,130.95-71.05,75.15-10.62,99.39,63.37,45.37,108.87-49.19,19.05-106.96,7.89-153.36-14.14-10.69-5.08-20.37-12.14-30.6-17.4-1.62-.84-3.14-1.59-5.04-1.45Z"/>
  <path class="st1" d="M546.9,488.99c-8.53,7.18-15.41,12.07-26.01,16.49-59.78,24.88-123.79-2.22-162.99-49.49,1.9-.14,3.41.62,5.04,1.45,10.23,5.27,19.91,12.33,30.6,17.4,46.4,22.03,104.17,33.19,153.36,14.14Z"/>
  <path class="st0" d="M272.66,852.32c-1.16-1.15-2.24-4.81-2.44-6.55-2.01-18.05,4.01-55.01-2.05-69.79-5.25-12.83-25.4-13.6-32.58-2.96-8.47,12.56-2.79,55.61-4.35,72.77-.83,9.14-8.35,10.16-16.42,10.07-11.59-.14-15.49-2.82-16.38-14.3-2.37-30.79,1.26-65.48.76-96.5-.05-10.37,24.78-9.01,28.53-5.18,1.36,1.39,1.8,6.96,3.97,6.04.92-.39,3.28-3.35,5.05-4.46,19.6-12.25,43.89-8.29,58.29,9.73,24.08-29.85,76.35-19.02,80.61,21.8,2.47,23.69-1.61,50.86.19,74.93-.94,10.76-27.89,9.6-31.59,2.99-1.06-1.89-1.04-3.08-1.23-5.11-1.52-16.85,4.04-60.87-4.16-72.95-8.8-12.97-30.9-7.64-34.6,7.64-4.48,18.51.54,45.66-1.24,65.31-.31,3.43-1,6.61-4.54,8.13-5.51,2.37-21.37,2.79-25.83-1.61h.02Z"/>
  <path class="st5" d="M621.7,751.19h2.07c17.61-27.12,64.69-20.58,76.21,9.84,6.1,16.12,2.66,54.09,2.92,73.13.08,5.63,3.04,11.86-1.46,17.47-4.16,5.18-19.05,4.62-24.92,2.61-4.63-1.6-5.95-7.27-6.33-11.62-1.67-18.93,2.61-42.83-.21-61.06-3.49-22.57-33.83-19.9-37.27.22-2.69,15.68-1.6,38.19-1.57,54.5,0,4.88,2.1,8.62-.54,14.16-3.56,7.47-29.66,8.64-31.1-3.61-2.41-20.56,3.51-48.71-1.27-68.45-4.27-17.64-31.85-16.97-37.25,1.33-5.08,17.23.22,47-1.51,66.09-.74,8.18-5.77,9.4-13.26,9.96-9.69.74-18.51.12-19.56-11.02-2.94-31.08,2.32-66.75.03-98.32-.63-11.73,24.56-10.6,29.27-6.53,1.75,1.51,1.92,6.82,3.98,6.02,1.08-.42,3.57-3.92,5.47-5.1,16.79-10.45,45.9-7.72,56.31,10.38h0Z"/>
  <path class="st5" d="M445.23,734.61c75.08-6,92.8,98.46,26.55,119.54-90.68,28.87-113.08-112.62-26.55-119.54ZM471.45,817.38c10.52-10.69,10.3-29.64.91-40.83-20.75-24.72-57.86-1.91-47.3,30.44,6.26,19.18,32.48,24.52,46.38,10.4h0Z"/>
  <path class="st5" d="M822.89,840.62c-24.91,24.38-70.52,21.59-91.43-6.52-36.13-48.59,8.92-114.34,67.99-96.57,44.04,13.25,55.71,71.5,23.44,103.09ZM777.68,766.23c-33.29,2.17-34.6,55.87-1.38,58.9,42.72,3.9,41.03-61.48,1.38-58.9Z"/>
</svg>