<?xml version="1.0" encoding="UTF-8"?>
<svg id="Layer_1" xmlns="http://www.w3.org/2000/svg" version="1.1" viewBox="0 0 141.73 141.73">
  <!-- Generator: Adobe Illustrator 29.6.1, SVG Export Plug-In . SVG Version: 2.1.1 Build 9)  -->
  <defs>
    <style>
      .st0 {
        fill: #231f20;
      }

      .st1 {
        isolation: isolate;
      }

      .st2 {
        fill: #fff;
      }

      .st3 {
        fill: #bae4ef;
      }
    </style>
  </defs>
  <path d="M45.78,99.41c.02.79-.7.82-1.34.83.18-.63.71-.83,1.34-.83Z"/>
  <path d="M62.58,32.54c-1.13.12-5.33,1.63-6.1,2.42-.36.37-.07.24.19.19,2.12-.37,4.3-1.25,6.5-1.11-1.12.9-2.66,1.25-3.99,1.77-.26.1-.88.34-1.02.57,2.02-.26,3.67-.8,5.76-.66.41.03,6.38,1.07,5.77,1.67l-.84.17c-.12.15,1.75.94,1.92.34.29.63,1.52,1.09,2.17,1.17.85.1-.31-.52-.36-.56-.11-.08-.12-.25-.3-.36-.53-.32-1.47-.66-2.1-.75.19-.49.93-.35,1.4-.31,1.43.11,2.72.84,4.12.81l-1.17-.75c1.94-.68,3.61,1.29,5.52,1.09-.42-.64-1.32-.87-1.89-1.36-.14-.12-.48-.28-.19-.48l3.81,1.5c.25.81,1.19,1.12,1.95,1.34l-1.58-2.52-2.26-1.41c1.03-.73,2.86.66,3.51,1.5.16.22,2.16,4.05,2.51,3.59.25-.6-1.17-2.42-1.16-2.59,0-.26.28-.18.46-.13.91.25,2.18,2.71,2.72,3.56l.33-.33,1.51,2.67.08-1.17,1.34,2.17c.38,0,.39-.29.42-.58.11-.96-.43-1.89-.51-2.85-.01-.18-.12-.62.16-.58.37,1.06.94,1.9.83,3.09-.02.21-.23.35-.24.6-.05,1.46,1.42,2.18,2.26,3.16-.64-1.51-1.1-3.21-.92-4.85,1.02,1.49.62,3.62,1.84,5.02l-.07-.6.33-.17c-.51-1.9,1.25-3.68,1.49-5.58.29-.04.16.38.17.58.05,1.66-.72,2.45-.84,3.68-.03.34-.07.49.34.42-.27-.51.48-.69.6-1.16.06-.25-.15-.62-.1-.67.03-.03.34.02.49-.1.18-.14.23-.43.34-.5.13-.08.38.12.47.07.37-.22,2.59-5.56,2.69-6.26.18-1.25.05-2.74.18-4,.1-.99.33-1.96.5-2.93.21-.27.3.02.33.25.15,1.14.1,3.67,0,4.86-.08.98-.47,1.93-.51,2.92,1.55-.35,1.14-2.43,1.5-3.68l.35,1.75c-.15.89-.33,1.99-.73,2.8-.36.73-1.09,1.17-1.29,1.97.41-.16.52-.67.82-.93.28-.25.63-.24.93-.58.43-.5.51-1.55.76-2.17.48-.48.34,1.35.3,1.55-.11.47-1.57,2.04-1.47,2.12.95.08,1.03-.64,1.44-1.15.05-.07.61-.68.73-.52.25,1.04-.39,2.17-1.06,2.95-.04.05-1,.6-.36.73.71.15,1.33-1.2,2.08-1.43s1.7.03,2.53-.15c.61-.13,2.09-.95,2.5-1.43-1.29.02-2.46.76-3.76.67-.19,0-.56.09-.42-.25.17-.42,2.18-1.01,2.73-1.29.91-.46,1.93-1.15,2.7-1.81.14-.13.48-.37,0-.33-.35.32-1.07.53-1.55.63-.18.03-.88.2-.88-.12.76-.21,1.48-.83,2.08-1.34.68-.58,1.67-1.86,2.27-2.24.26-.17.5-.31.83-.26-.28,1.32-.75,3.84-2.5,3.67l-.34,1.34c.41-.54.59-.62,1.32-.48.63.73-1.82,2.41-1.82,2.57,1.28.76-.15.76-.63.97-.24.1-.96,1.24-1.55,1.12l1.34.17c-.26.86-4.86,2.8-4.84,3.09,1.42,1.29,3.21,2.07,4.5,3.51,1.06,1.17,2.29,3.55,2.6,5.09.18.91.55,4.4-.97,4.16-.4-.06-1.3-.97-1.81-1.21-.88-.41-2.04-.06-3.08-.09-.9-.03-3.58-.62-4.18-.19s-.68,2.37-.53,3.07c.1.51.62.93.64,1.54s-.28,1.55-.33,2.19c-.03.4.22.72.12,1.28-.04.24-1.18,2.37-1.36,2.58-.34.39-2.13,1.31-2.13,1.81l4.59,5.11.26.65-1.5-.42c1.86,2.32,4.6,4.24,5.35,7.27-.22-.12-.34-.23-.6-.32-.07-.02-.88-.32-.74.07.48,1.15,2.44,2.72,2.88,3.64.1.2.16.39.13.62-.14-.02-1.05-.82-1-.25.18.21.42.37.57.6,2.4,3.65,3.39,9.23,4.4,13.49.25,1.05.2,2.15.29,3.22-.38.02-.35-.34-.44-.56-.84-2.04-1.56-4.15-2.57-6.13-.75-1.47-2.33-3.43-2.83-4.83-.04-.12-.24-1.03.06-1.02.89,1.45,2.1,2.66,3.04,4.07.11.17.34.52.31.03-1.42-2.6-2.81-5.21-4.68-7.52-.74-.91-2.87-2.81-3.14-3.72-.04-.12-.12-.37.05-.38l4.18,3.51.08-.25c-.73-.76-1.35-1.73-2.01-2.51-1.12-1.32-3.02-2.88-3.87-4.32-.13-.22-.43-.71-.22-.95l2.76,2.17c.06-.07-.65-1.34-.76-1.49-.38-.51-3.34-3.41-3.83-3.69-.69-.41-.95-.22-.59.51l.17-.5c.51.19.26.87.41,1.35.11.36.72,1.17.93,1.58.03.54-.32-.2-.41.41-.25-.08-1.14-1.27-1.5-1.51-.24-.15-.58-.04-.71-.2-.17-.2-.16-.72-.62-.97-.42-.23-.83-.08-1.1-.24-.13-.08-.18-.36-.34-.49-.07-.06-.28.06-.31.04-.1-.1-.07-.43-.24-.59-.14-.13-1.39-1.12-1.45-1.05.26.87,1.14,1.41,1.61,2.15.3.47.47,1.07.76,1.59.37.67,1.34,1.32.89,2.28l-4.85-5.85c-.73.05.36.95.49,1.18,0,.59,2.05,3.22,1.77,3.5-.22.21-.49-.14-.64-.28-.52-.49-1.48-1.71-2-2.34-.49-.59-1.12-2.13-2.03-1.99,1.03.88,1.82,2.06,2,3.43-.79.1-2.86-3.79-3.34-3.34l.76,1.33c1.26,1.31,2.23,3.09,2.92,4.77.13.33.4.92.25,1.26-.87-1.19-1.72-2.4-2.6-3.59-.53-.71-1.25-1.5-1.81-2.2-.36-.44-.46-1.52-1.03-1.31l.68,1.33.41,1.76c-.49-.41-1.11-.93-1.53-1.39-.99-1.09-1.62-2-2.7-2.99-.3-.28-.77-1.69-1.08-2.08-.04-.05-.57-.42-.45.03.64,1.02,1.4,2.1,1.75,3.27.09.3.39,1.02-.07,1.16-.49-1-1-2.05-1.63-2.97-.37-.54-1.2-1.18-1.53-1.84-.42-.85-.8-2.28-1.02-3.21-.44-.06-.34.05-.32.4.12,1.61,1.51,2.67,1.24,4.28-1.43-1.68-2.45-3.67-2.76-5.85-.29-.04-.16.38-.17.58-.02.44.01.89,0,1.34l-.33.08c-.17-.32-.23-.73-.36-1.03-.06-.15-.26-.13-.3-.26-.17-.46-.05-1.33-.51-1.88l-.33.08c.48,1.84,1.08,4.12.84,6.02-.03.23-.09.48-.33.25-.69-1.16-.51-2.55-.85-3.71-.04-.14-.28-.13-.35-.36-.33-1.06-.05-2.16-.3-3.02-.06-.2-.39-.01-.53-.2-.23-.31-.26-1.26-.74-1.57l1.08,5.1-.33.08c-1.1-1.62-1.16-3.72-2.26-5.35-.22,1.34.59,2.62.73,3.95.02.18.15.6-.15.56-.12-.67-.66-1.04-.95-1.64-.25-.52-.49-1.42-.67-2-.16-.52-.31-1.84-.45-2.13-.1-.22-.19-.29-.43-.24-.07.08,0,1.88.05,2.06.08.23.33.34.41.57.42,1.37,1.02,3.54.99,4.95,0,.13-.06.49-.28.44-.37-1.45-.77-2.92-1.26-4.34-.52-1.51-1.34-3.17-1.82-4.67-.04-.14-.15-2.18-.6-1.69-.33,2.24,1.31,4.1,1.17,6.35l-.92-1.5c-.34-1.5-1.42-2.86-1.25-4.43.08-.74.54-1.25.17-2.09-.31.13-.42.82-.48,1.11-.24,1.05-.02,2.03-.35,3.06-.37-.17-.46-1.08-.48-1.45-.08-1.05.43-2,.49-2.98.02-.35-.11-.33-.25-.08-1.3,2.21-.72,3.86-1.24,5.93-.06.24-.03.53-.34.59-.31-1.82-.22-3.41.24-5.19.15-.58.67-1.17.51-1.83-.31.94-1.12,1.89-1.46,2.72s-.39,1.92-.69,2.83c-.06.18-.04.5-.28.47.16-.68-.17-1.5-.17-2.09,0-.87,1.04-2.87,1.6-3.58.31-.4,1.95-1.51,1.08-1.52l.33-.5c-.37-.35-1.96,2.38-2.42,2.5-.48-.68,2.09-3.04,1.92-3.17-.62-.08-.78.59-1.08.84-.23.19-.54.24-.74.43-.23.21-1.43,1.8-1.68,1.57.38-.84.84-1.64,1.37-2.39.27-.39,1.38-1.49,1.47-1.7.08-.2-.05-.33-.25-.25-.44.19-1.86,2.34-2.26,2,.53-1.34,1.47-2.16,2.51-3.09-.9-.38-1.14.53-1.59.92s-1.08.78-1.5,1.17c-.16.15-.98,1.45-1.25,1.17.59-1.92,2.29-3.26,4.01-4.18.03-.32-.34-.14-.5-.09-.28.08-.82.29-1.09.41-.32.14-2.32,1.44-2.41,1.35.53-1.87,2.44-2.27,3.51-3.59-.57-.04-1.14.29-1.67-.17l3.34-2.09h-2.17l.67.5c-1.79.13-1.59-.56-.29-1.2.86-.42,2.51-1.03,3.47-1.38.09-.03,2.44-.6,1.25-.76-.17-.02-1,.45-1.08,0l5.01-.84c.06-.36.02-.27-.21-.37-.28-.13-1.34-.39-1.61-.38-.26,0-.55.24-.88.31-.05,0-.96.21-.81-.14.88-1.18,2.67-1.25,4.01-1.17l-.46-.55c-1.33-.19-2.68.22-3.97.13-1.74-.13-3.03-.64-5-.48-1.25.11-2.37.73-3.62.81.08-.23.32-.43.51-.57,1.16-.85,3.82-1.19,5.26-1.26.93-.04,2.43.55,2.92-.34-.89-.2-2.04-.46-2.93-.46-1.18,0-4.47.87-5.76,1.21-1.37.36-2.67,1.25-4.17,1.09-.08-.37.18-.38.41-.51,1.11-.63,2.58-1.01,3.77-1.5l-.33-.33c1.05-.22,2.27-.35,3.29-.64.25-.07.82-.24.89-.53-1.83.07-4.14.56-5.85,1.25-.8.33-2.67,1.69-3.26,1.76-1.01.12-.02-.49.08-.63.16-.23.35-.84.53-.99.04-.03.23.07.38-.04.55-.39,1.13-.76,1.59-1.26-1.52-.41-2.7,1.28-3.35,2.42l-.47-.15-2.53,2.59,2.42-1.42c.13-.03.11.16.08.25-.3.93-1.92,2.14-2.59,2.93-2.03,2.37-3.43,4.83-5.09,7.44l.08.25c1.41-1.6,2.54-3.45,4.18-4.85.13-.03.11.16.08.25-.62,2.02-3.68,5.7-4.77,7.94-.51,1.04-1.3,3.03-1.55,4.14-.08.35-.1.44.3.38.78-1.89,2.32-4.22,3.76-5.69.11-.11,1.29-1.21,1.25-.58-2.46,3.79-5.24,7.41-6.6,11.79-.02.06-.48,1.53,0,.99,1.01-1.47,1.77-3.64,2.86-5,.16-.2.27-.41.57-.34-.1,1.84-1.34,3.01-2.13,4.64s-1.14,3.23-1.86,4.83-1.83,3.07-2.29,4.73c-.02.08-.24.84.09.6l2.93-3.93c.16.31-.07.85-.17,1.17-1.11,3.32-3.55,6.14-6.1,8.45.13.25.4-.04.55-.12,1.82-1.01,3.38-2.89,4.88-4.31.12.42-.25,1.03-.44,1.4-1.66,3.16-5.15,5.63-8.21,7.3-.73.4-3.27,1.64-4.09,1.79-.62.12-1.55.27-1.53-.52l4.99-2.61-.08-.33-2.14.34-.28-.5c2.72-1.25,5.54-3.05,7.19-5.6-.22-.27-1.09.2-1-.33.7-1.56,2.1-3.3,2.62-4.9.31-.94.31-2.09.6-3.08.58-1.98,1.58-4.02,1.95-6.07.11-.64-.79.46-.99.26.63-3.28,2.18-6.48,3.65-9.47.2-.41.79-.88.61-1.22-.31.46-1.51,1.37-1.39.29.06-.6.81-.95.14-1.04,1.59-2.89,3.35-5.69,5.52-8.2.2-.47-.89-.15-1-.25-.13-.56.62-.79.76-1.01.11-.18-.1-.44,0-.66.11-.27,3.71-3.32,4.27-3.93.68-.75,1.21-1.82,2.01-2.51-1.12-.15-1.86.66-2.67,1.25-.02-1.48.81-3.24,1.77-4.33.32-.37,1.71-1.5,2.13-1.72.51-.27,3.1-.96,3.46-.72.62.41-.57.68-.83.85-.33.21-4.26,2.91-3.85,3.25,3.02-1.22,6.13-3,9.54-2.43.57.1,1.06.47,1.66.43.07.17-.39.33-.42.33-.83,0-1.88-.09-2.67,0l-.08-.08ZM68.68,37.72c-.84-.11-3.01-1.32-3.69-.93.02.82-.21.04-.65.51.67.46,1.51.11,2.2.18.55.06,1.09.25,1.64.33.18.03.55.22.51-.09h0ZM72.36,39.89c.08-.37-.18-.38-.41-.51-1.24-.69-2.61-.68-3.94-.33-.11.52.13.2.28.23,1.44.31,2.75.1,4.07.6h0ZM79.05,38.72c-3.09-.28-3.14,2.94-4.68,4.76-.8.94-1.35,1.08-2.34,1.68-.09.05-.65.16-.33.41.16.13.63-.13.75-.33l.33.33c.24-.47,1.13-.59,1.37-.87.46-.55,1.19-2.23,1.65-2.96.24-.39,1.04-1.2,1.13-1.39.11-.23.06-.66.15-.77.05-.06,1.33-.46,1.56-.53.25-.08.5.19.41-.33ZM81.49,39.96c-.93-.35-3.59.47-4.19,1.28s-1.24,2.62-2.1,3.42c-.5.46-1.6.52-1.97,1.33-.03.34,1.47,1.39,1.7,1.77s.2.94.65,1.44c.12.13,1.57,1.17,1.7,1.23.08.03.27.04.25-.08-1.03-.84-1.68-1.68-2.37-2.81-.15-.25-.43-1.08-.48-1.12-.11-.08-.61.38-.83-.08l1-.42-.17-.5c1.14.43,1.07-1.05,1.67-1.51l.17.33c.12-1.51,1.57-2.56,2.86-3.09l-.02-.42c.92.05,1.75-.46,2.59.16.55-.26-.24-.84-.48-.93h.02ZM83.23,50.26c.39,0,1.32.03,1.56,0,.11,0,.09-.27.24-.33.22-.09.58-.04.78-.17.14-.09.06-.37.15-.46.57-.58,1.35-1.38,1.31-2.31-.03-.71-.32-1.97-.46-2.59-.03-.12-.26-.23-.23-.42l.34-.17c-.18-.52-2.67-3.18-3.18-3.35-.31-.1-.51.11-.73.1-.09,0-.13-.63-.43-.35-.55.52.23,1.18.83.5l-.16.66c2.06.62,3.68,3.87,3.27,5.87-.08.37-.82,2-1.13,2.11-.1.03-.31-.09-.58,0-.57.21-.69.74-1.56.55,0,.11-.01.23,0,.33-.77,0-1.71-.14-2.51-.17l.08.33h-.24c.04-.6-.31-.16-.56-.22-.53-.13-1.17-.64-1.79-.61,1.14,1.56,3.46,1.4,5.18,1.17.06-.2-.15-.39-.17-.5v.03ZM83.51,42.62c-1.15-.91-2.78.45-1.92,1.75l.37.13,1.02-.42c.26.74,1.22.03,1.05-.73-.01-.04-.47-.7-.52-.74h0ZM101.27,43.57l-1.39.15c-.09.65-.68.64-.94,1.19l.5.17c-.05-1.56,1.94.36,2.42.84.19.19.36.4,0,.5-.07.02-.17-.34-.35-.48-.53-.41-.97-.56-1.46-.85-.16-.09-.02-.41-.27-.34l-.19.82-.99-.08-.16.6c-.05.06-1.13-1.09-1.17,0l.5.25-.18.4-.65.02c.07.29.27.35.55.31.66-.1,1.91-1.04,2.8-.81l.08-.33.25.67-.83-.08c2.34,1.15,1.18,4.46-1.22,3.73-1.37-.42.08-1.93.05-2.05-.1-.45-1.01.1-1.34-.25l-.5,1.5h.67c-.27.93.75,1.44,1.59,1.51,1.81.15,3.12-1.02,3.1-2.84.72.34.63,1.12.17,1.67l.64-.19.03-.64.33.17c.19-.74-.48-.91-.75-1.34-.15-.24-.15-.4.17-.34.03.28.86.82.88.88.07.17-.24.43.12.63l.58-.17c-.88,1.21.79.06.67.83-.08.06-1.14.09-1.38.17-.09.03-1.09.87-1.49,1.06-1.67.82-2.48.7-4.25.76-.32,0-.55.28-.66.28-.15,0-.46-.39-1-.28l-.09.51-.26-.34-1.91.18.17.5c-.52.14-.26-.48-.73-.49-.83-.02-2.08.65-2.87.92-.16.05-.39-.07-.59,0-1.02.38-2.56,1.15-2.83,2.25l.67-.5c.02.4.11.62-.33.74-.07.99,2.16.93,2.73.73.27-.09.32-.48.53-.64l.17.33.25-.67.59.5.33-.34.08.34.59-.16.08-.51c-.55.26-1.2-.08-1.71.03-.41.08-.69.55-1.22.63-.58.1-1.19,0-1.75-.16l.5-.34-.5-.16c-.36-.54,2.33-1.08,2.67-1.17l-.33-.67.58.5.86-.84.56.18-.08.34c2.22-.23,4.47-.25,6.68-.31.51,0,1.33.51,1.5-.2.16,0-.01.26.2.33,1.08.39,3.21.37,4.47.69.83.21,3.57,1.6,4.43,2.08.32.18,1.49,1.42,1.85,1.16l.16-.92-.33.17c.15-.91-.17-2.05-.54-2.89-.13-.3-1.25-2.3-1.4-2.46-.23-.25-1.03-.45-1.1-1.16l-.64.15c.17-.36,0-.43-.24-.67-.67-.68-2.33-1.83-3.27-1.33l-.33-.17.5-.42c-.15-.29-.93-.39-.83-.92l.5.33c0-.08.03-.18,0-.25-.21-.54-2.7-1.88-2.68-2.93h-.02ZM84.8,47.49c-2.49,2.93-7.71.47-6.93-3.42-1.14.86-.05,3.08.8,3.85,2.12,1.91,6.88,1.93,6.89-1.67-.44.43-.32.73-.76,1.24ZM88.48,44.5c-.07-.07-.09-.15-.08-.25l-.33.25c.72.95,0,3.66-.6,4.58-.31.48-.81,1.02-1.41.68l-.08.68c-.38-.1-2.26,1.01-1.93,1.32l2.05-.83.71-.84.16.34.91-.52c-.37-1,.07-.44.42-.82.16-.17.72-1.48.75-1.76.03-.3-.17-.36-.33-.24-.05.04.14.49-.33.33.02-.94.73-2.22.07-2.92h.02ZM89.58,45.75v-.84c-.26-.03-.25.45-.28.63-.07.5.03,1.04.11,1.54.42-.11.64-1.29.5-1.5l-.33.17ZM82.56,60.62s.16.16.08.33c-.17.36-1.14,1-1.42,1.42-.14.22-.12.42.08.41.4-.32.79-.66,1.15-1.02.59-.59,1.28-1.16,1.87-1.82.4-.45.77-1.29,1.08-1.6.36-.37,1.36-.46,1.51-.83l-.58-.74-1.26.49,1.34-1.84-2.33,1.27c-.28.15-.85.02-.52-.35.44-.49,1.61-.95,2-1.34.25-.25.23-.6.68-.99.79-.67,2.12-1.45,3.14-1.64.02-.78.1-.27.53-.37.49-.11.92-.54,1.49-.69s1.27-.13,1.85-.24l-.5-.17-.08-.5-.25.33-.08-.33-2.05.98-.88-.31c.33-.46,1.41-.63,1.51-1.17l.17.33c.87-.24.38-1.12,1.5-.84l-.14-.31c.38-.05,1.29-.69.57-.8-.87-.14-.75.55-1.1.86-.38.34-1.09.29-1.49.52-.19.11-1.56,1.68-1.85,1.4-.13-.58.7-.59.8-.7.12-.15,0-.68.24-.93.15-.16.64-.16.78-.45-.68-.72.1-1.47.18-2.26-.33.21-.43.41-.83.17.03.81-.24,1.92-.62,2.63-.07.14-1.29,1.27-1.38,1.31-.21.09-.39-.23-.68-.18-.52.09-.94.75-1.37.96-.73.35-1.59.21-2.29.89-.17.16-.11.48-.29.58-.23.12-.69.06-.92.17-.84.39-1.8,1.05-2.86,1.36-.27.08-.49.19-.79.13.25-.97,1.45-.69,2.18-.91.28-.09,1.62-.91,1.62-1.18l-.3-.59-.25.33.26.33c-1.31.2-2.35.64-3.68,0l2.05-.37.29-.46c-1.38.1-2.62.09-3.98-.2-.27-.89-.94-1.75-1.78-2.15l-1.43-2.67c-1.29.94-1.23-.36-1.72-.79-.11-.09-.39-.08-.53-.21-.31-.27-.75-.99-1.09-.76l1.34,1.75c-.28.25-1.38-1.09-1.61-1.13-.21-.04-.52.17-.81.14-.86-.09-2.39-.71-2.93,0,1.23.48,3.3.28,3.84,1.67-.13.1-2.18-.6-2.54-.72-.7-.23-1.1-.88-1.64.38,1.13.07,1.61-.03,2.6.67.31.22.53.57,1.08.92.2.13.43-.04.33.41-1.44-.46-2.78-1.09-4.26-1.34l-.17.33c.49.74,1.17.59,1.89.79.23.06.44-.04.36.3-1,1.15-1.82-.04-2.96.87-.13.11-.31,0-.21.38.56-.39.83.02,1.28.11.15.03.35-.08.56-.03.53.15,1.23.49,1.67.84-.91.21-2.19-.54-2.84.42,1.44.39,3.33.09,4.51,1.09-.92.26-2.67-.25-3.43.24-.29.19-.26.32.01.51l1.42-.17-.33.33,2.67.34c-.82,1.02-2.45-.07-3.18,1.17.7.29,1.27-.28,1.92-.34.47-.05,1.04.17,1.32.13.7-.11.74-1.13,2.23-.32.62.34.8.69-.09.59-.61-.07-1.21-.34-1.87-.22l.83.33c.26.34-2.2.73-2.51.67-.05.43,0,.27.25.34,1.39.41,3.33-.79,4.77.16-.78.66-2.34.76-3.34.84,0,.16.87.33.92.33h3.01s.26.23.25.33c-.72-.19-1.33.25-1.94.33s-1.31-.2-1.81-.14c-.52.06-1.01.44-1.6.32l2.43.5,3.26-.16v.66c-.95.2-1.74.44-2.75.33-.37-.04-.88-.38-1.18-.32-.2.04-.27.21-.09.42.82.94,4.75.28,6.02.08-.11.81-.78.63-1.21.71s-.72.29-1.22.3c-.42,0-2.78-.57-2.59.23.03.11.58.43.72.47,1.01.29,2.45-.11,3.45-.16.27,0,.47.21.59.21.39,0,1.12-.71,1.76-.43l.08.33,2.26-1c-.61.63-1.89,1.68-2.77,1.69-.35,0-.15-.45-.47-.33-.75.4-1.59.97-2.45.99-.29.86,1.09.4,1.68.26.54-.14,1.01-.78,1.5-.17l-.33.42c.13,0,.26.02.39-.03.59-.21,2.17-2.01,2.87-2.48.37-.25.99-.47,1.42-.67.31-.91,1.43-2.35,2.34-2.67.3.39-1.16,2.24-1.61,2.49-.3.17-.59.12-.73.19v.03ZM77.88,48.92c-1.43-.62-1.1-2.63-2-3.68l-.17,1.17-.5-.09,2.08,2.77.51.15.08-.33h0ZM96.07,48.77l.19.4.33-.17-.66-2.09c-.34.7-.02,1.02.17,1.67l-.84.33.81-.15h0ZM97.27,50.59l-3.68-.17v.67c1.15-.51,2.22-.17,3.31-.21.31,0,.43.21.37-.29ZM99.61,54.77c.05-.24.07-.37-.22-.31-.66.14-1.16.79-1.61.91-.27.07-1.18-.24-1.17.15.01.33.94.15,1.1.12.74-.18,1.49-.76,1.9-.87-.02.1-.23.29-.17.33l3.18.25-.58.42-.18-.35c-.33.07-1.77.4-1.99.32-.09-.03-.07-.26-.11-.27-.26-.12-.76.39-1.14.3l.08.33c.48-.44.39.17.52.18,1.09-.49,2.96.24,3.66-.51.57.32,2.38.87,2.59.08.05-.17-2.03-.69-2.21-.76-.16-.07-.16-.27-.25-.32-.87-.5-.56.35-1.28.16-.13-.03-.04-.32-.35-.35-.23-.02-1.52.12-1.76.18h-.01ZM95.76,56.11l-1.26.32-.42,2.91c.37.24,1.68,2.42,1.51,2.62-.52.06-1.52-1.95-1.84-1.67.35.45.02.96.09,1.36.01.06.95,1.6.33.98-.45-.45-.91-1.52-1.05-2.14-.1-.43.26-1.25-.37-1.54.34.82-.04.56-.16.8-.38.76.34,2.89.66,3.71-.46.46-1.03-2.19-1.5-2.17l.16,1-.5.09c.33.77.29,1.59.67,2.42-1.72-1.24-1.35-3.42-.5-5.1l-.5-.09c.22.55-.28.68-.32.8-.46,1.24-.61,2.86-.14,4.1.15.4.66.45.29,1.12.95.07.94.87.02.24-1.72-1.17-1.37-4.29-.52-5.92-.67-.05-.53.74-.68,1.04-.09.19-.35.17-.42.45-.12.47-.25,2.41.1,2.78l-.34.16.67,1.26-.5-.33,1,1.5c-1.08-.3-1.9-1-2.17-2.09l.5.25c-.03-.73-.32-1.34-1-.67-.02-.36.27-.56.33-.93.11-.75-.3-1.32.17-2.08-.4-.09-.39.16-.45.46-.29,1.32-.21,2.93.25,4.17.24.65.87,1.11.7,1.89-.3.34-1.26-1.36-1.42-1.5l-.08.5c-.71-.72-.02-2.14-.17-3.26-.03-.23-.1-.5-.33-.25-.14.81-.28,1.78-.17,2.6.07.56.38.85.51,1.33.12.46-.61-.12-.33.33.22.36.8.64.67,1.26-.24-.08-.41-.15-.55-.38-.12-.19-1.28-3.04-1.29-3.22,0-.1.31-.06.34-.19.08-.31-.06-.71.04-1.11.06-.22.83-1.27.63-1.46l-.67.17.17.33-.67-.17c.3,1.65-.95,1.94-.96,3.64,0,.2.31,1.78.37,1.87.18.27,1.43.73.83,1.18-.67-.21-.56-.78-.61-.82-.08-.06-.33.06-.49-.12-.37-.41-.68-2.77-.6-3.3.04-.3.59-.81.45-1.28-1.19.49-1.33,1.6-.84,2.67l-.5-.17c.17,1.3.21,2.16,1.03,3.23,1.07,1.38,1.44,1.11,2.73,1.77.48.24.78.78,1.21.97.19.09,1.97.55,2.12.54.36-.02.64-.36.93-.41.93-.18,1.82.09,2.73-.44.81-.48,1.12-1.39,1.69-1.99.42-.44,1.12-.69,1.47-1.2.24-.36.56-1.75.61-2.24.06-.63.08-2.18.03-2.82-.08-1.03-1.72-2.88-2.14-3.89-.28-.67-.44-1.86-.34-2.58.02-.15.14-.3.13-.46l.67.17v-1h-.01ZM93.22,58.41c.06-.07.45-1.44.47-1.62.02-.26.14-.3-.17-.51l-.75.83c.43-.13.44.55.3.8-.07.12-1.43.64-1.05,1.2.19-.48,1.05-.52,1.21-.71h-.01ZM85.9,59.45l.5-.92c-.09-.19-.47.27-.5.33-.35.54-.62,1.36-1,1.92.24.22,1.7-1.46,1.85-1.74.08-.16.31-.48.07-.59l-.92,1ZM98.77,68.14c1.2-.45,2.26-2.44,2.47-3.63.26-1.51-.1-1.66-.48-2.8-.13-.41.17-.79-.24-1.09-.37-.13-.08.78-.06.9.23,1.08.14,1.46.22,2.46.02.23.24.46.26.58.01.09-.28.07-.34.19-.16.35-.71,1.29-.74,1.4-.08.24.12.54.01.67-.12.14-.42.09-.56.21-.05.04-.61,1.05-.54,1.12h0ZM84.73,61.79c-.38.43-1.54,1.36-.92,2,.37-.65,1.07-1.19.92-2ZM98.94,64.63c1.15.01.58-.73.67-1.41.06-.44.64-.87.08-1.26-.59.39-.18,2.21-.5,2.34l-.25-.33v.67h0ZM80.89,62.96c-.14-.12-.6.26-.72.36-.63.51-1.36,1.23-1.95,1.81,1.17-.26,1.96-1.29,2.67-2.17ZM81.72,69.48c-.69-.2-.09,1.22.03,1.39.23.32.48.31.8.45-.25-.68-.84-1.01-.84-1.84h0ZM99.78,73.16c-.41-.98-1.38-1.53-2.34-1.84.24.29,2.11,2.04,2.34,1.84ZM100.78,76.17c.18-.2-.9-1.16-1.09-1.33-.84-.77-1.89-1.53-2.92-2.01l1.42,1.5s2.59,1.84,2.59,1.84ZM97.34,75.44c-.6-.76-1.68-1.39-2.58-1.77-.14.13,2.15,1.79,2.35,1.92.24.16.91.27.24-.14h0Z"/>
  <path d="M79.05,97.31c-.02.23-.74,3.46-1,3.09,0-.35.03-.71-.02-1.07-.03-.21-.07-.91-.31-.94.08,2.09-1.49,3.79-3.01,5.01l-.17-5.52c-.42.17-.45.79-.5,1.17l-.5-.42-.31-8.58.46-.19.77,1.5.58,2-1.11-8.78.44-.24,1.5,3.51c-.17-1.7-.82-3.62-.78-5.31,0-.12-.16-.55.2-.37.77.38,2.04,5.17,2.26,6.18.31.03.13-.35.12-.53-.13-1.27-.55-2.52-.45-3.81.39-.11.28.09.38.21,1.78,2.05,2.4,7.69,2.8,10.4-.77-.21-.92-1.09-1.42-1.59-.28.14.08.49.08.58,0,1.15.11,2.57,0,3.68v.02Z"/>
  <path d="M59.49,85.19c.43.08.3-.06.41-.33.33-.83.49-1.86.8-2.72.26-.71.65-1.77,1.13-2.3-.34,1.33-.08,2.94-.34,4.25-.19.96-1.16,2.16-1.16,3.27l2-3.01-1,5.35,1.5-2.34c.26-.05.19.25.17.42-.35,2.73-2.89,5.76-4.86,7.51-.4.36-.53.97-1.16.92v-.83c-.69,1.42-2.59,2.6-4.18,2.34l2-4.09c-.53-.1-.92.87-1.42,1.09-.13.02-.1-.15-.08-.25.22-1.26,1.43-4.47,2.09-5.61.18-.31.47-.8.76-1v2.67c.27.26.56-.51.59-.66.21-.97.09-2.14.32-3.19.53-2.42,2.22-4.74,2.27-7.35l.49,1.26c0,1.54.23,3.1-.32,4.59h0ZM56.48,93.55c.47.51,1.13-2.24,1.17-2.43.06-.27.28-.33-.09-.58,0,0-1.08,3.01-1.08,3.01Z"/>
  <path d="M54.31,78.84c.54.06.18-.64.83-.67.22.28-1.36,4.49-1.64,5.13-.62,1.41-1.56,3.44-3.21,3.73l.59-2c-.86,1.76-2.45,3.19-4.43,3.51l.17-.83h-1.17c2.46-3.61,5.3-7.16,6.28-11.53.04-.2.51-4.08.91-3.52-.03,1.38.31,2.9.35,4.26.02.71-.25,1.12-.26,1.76.92-1.49,1.43-3.7,1.76-5.44.15-.78-.05-1.91.49-2.42.81,2.81.18,5.33-.67,8.02h0ZM50.63,83.86c.3-.81.6-1.63.67-2.51-.44.34-.66,1.29-.76,1.83-.03.17-.24.7.09.68Z"/>
  <path d="M67.51,83.36c.25.04.21-.32.24-.5.26-1.37.34-2.96.09-4.34.33.23.74.85.87,1.21.78,2.2.44,5.34.63,7.64l.63-2.13.04-1.21c.24.02.39.65.42.83.23,1.34.28,3.59.07,4.92-.13.85-.45,2.68-1.32,2.94-.08-.12.07-1.25-.33-1.34-.01.26-.06.52-.16.76-.56,1.32-1.58,2.77-2.85,3.42v-4.35l-1.26,1.5c-.28-1.98.67-3.9,1.05-5.81.57-2.93.97-5.92.55-8.9.35.21.55.87.67,1.25.42,1.25.64,2.78.66,4.1h0ZM67.34,90.21c-.02-.73.19-1.35.18-2.09,0-.23-.05-1.01-.34-1.08v2.59s.16.58.16.58Z"/>
  <path d="M49.29,91.21c.29-.21,2.52-3.2,2.84-2.84-.05,1.14-.57,2.33-1.08,3.35-.22.44-.82.95-.68,1.33l1.34-1.34c.32-.03.24-.01.23.24-.05,1.56-3.71,5.27-5.16,5.7-.66.19-1.63.04-2.35.24l2.51-2.09c-.53-.06-1.16.65-1.72.95-1.29.69-2.8,1.33-4.29,1.3-.26-.15,1.18-1.58,1.5-1.67-.17-.51-1.26.6-1.32-.23,1.75-1.95,2.86-4.62,5.16-5.95.24,1.34-1.05,2.21-1.5,3.43l.33.08c.03-.35.2-.59.42-.84,1.38-1.6,3.19-3.1,4.77-4.51-.02,1.17-.57,1.83-1,2.84h0Z"/>
  <path d="M62,99.91c.79-.94,1.16-2.46,2.34-3.01.33,1.13-.22,2.23-.33,3.34l1.75-2.68c.75.77.14,1.77.17,2.68.67-.78,1.16-1.69,1.55-2.63.23-.55.02-1.04.71-.88.36,1.96-.03,4.05-.97,5.8-.36.66-.88,1.79-1.7,1.39l.42-2.17c-1.16,3.08-3.59,3.49-6.6,3.34-.08-.57,1.34-2.76,1.33-2.93-.02-.67-1.62.72-1.5,0,.19-1.16,1.34-3.04,1.79-4.23.2-.55.92-3.7,1.31-3.7.76,1.68.32,3.94-.25,5.68h-.02Z"/>
  <path d="M40.77,84.53c1.13-.75,1.63-2.27,3.01-2.67l-.34.58-.75,2.26,3.09-3.34c.05.39-.05.73-.16,1.1-.75,2.46-5.47,7.4-7.99,8.05-1.07.28-1.72-.12-2.71.05.43-1.1,1.9-1.5,2-2.67l-.92.17-.08-.33c.55-.39,1.28-1.12,1.75-1.67,1.4-1.64,2.87-3.89,3.9-5.8.12-.23.2-.46.2-.73.29-.04.17.4.17.59,0,.51-.05,1.67-.18,2.14-.24.84-.84,1.44-.99,2.28h0Z"/>
  <path d="M49.96,71.91c-.29,2.29-2.58,5.7-4.25,7.28-.22.21-.49.29-.75.47-.11.08-.24.59-.19-.06.24-2.68,1.7-7.83,2.52-10.52.29-.94.87-1.77.99-2.77.44.21,0,1.06,0,1.42,0,.53.2,1.02.17,1.68-.05,1.2-.32,2.54-.34,3.75.98-1.07.75-2.93,1.84-4.01-.08.88.11,1.91,0,2.76h0Z"/>
  <path d="M97.43,14.49c-.47.08-.28-.1-.38-.37-1.69-4.77-1.89-5.87-5.51-9.5-.55-.55-1.47-1.21-1.13-2,.36-.25,2.39,1.34,2.76,1.67,1.98,1.71,4.26,5.08,4.26,7.78,0,0,0,2.42,0,2.42Z"/>
  <path d="M74.37,9.14c-.89-.37-1.58-.93-2.51-1.25-3.57-1.22-7.24-.52-10.6.93l-.12-.31-.47-.12c.3-.5.71-.99,1.22-1.29,3.11-1.82,7.26-1.37,10.35.25.23.12,2.5,1.44,2.13,1.79Z"/>
  <path d="M59.82,22.67l-2.27.49c-1.64.95-3.5,1.51-5.07,2.62-1.19.83-2.28,2.43-3.85,2.23-.2-.95.62-1.59,1.24-2.16,2.26-2.11,6.23-3.87,9.37-3.51.25.03.52.03.58.34h0Z"/>
  <path d="M65.84,12.48c.04.26-.46.21-.65.23-2.19.2-4.08.44-6.21,1.01-1.82.49-3.11,1.77-5.01,1.6-.23-.84.64-1.31,1.28-1.64,1.27-.66,3.96-1.56,5.3-1.7.12-.01.09-.31.21-.34.23-.04,2.15,0,2.46.03.95.09,1.74.49,2.61.82h.01Z"/>
  <path d="M79.46,2.78c1.77.24,4.65,2.19,5.85,3.51.77.84,2.1,2.35,2,3.51-.58-.73-1.44-1.79-2.17-2.34-.89-.67-3.8-2.49-4.78-2.91-1.16-.5-2.8-.44-3.5-1.77.82.08,1.8-.11,2.59,0h.01Z"/>
  <path d="M59.15,11.31c1.85-3.47,7.62-3.41,10.7-1.75.14.59-1.13.24-1.41.24-1.96.05-3.73.09-5.62.58-1.23.32-2.35,1.1-3.67.93Z"/>
  <path d="M78.38,8.97c-1.53-1.06-3.25-2.14-5.02-2.75s-3.37-.71-5.15-1c-.44-.07-.58-.05-.97-.17-.14-.04-.36.04-.39-.26.7-.07,1.02-.59,1.75-.67,3.17-.38,7.65,1.6,9.54,4.17.17.23.31.35.24.68Z"/>
  <path d="M59.66,25.02l-3.06,1.2c-1.94.64-4.45,3.73-5.97,4.41-.19.08-.43-.09-.47-.05-.08.06.1.37-.18.3.37-4.3,6.06-5.9,9.69-5.85h0Z"/>
  <path d="M59.82,27.53l-4.9,2.7c-.98.86-1.99,1.69-2.96,2.56-.54.49-.73,1.11-1.5,1.26.07-4.42,5.72-6.16,9.36-6.52Z"/>
  <path d="M59.99,18.16c-.26.01-.49-.18-.75-.17-1.52.09-3.57.89-4.94,1.58-1.21.62-2.22,1.94-3.55,2.24l-.43-.42c.44-1.37,1.96-2.47,3.2-3.1,1.57-.8,2.91-1.14,4.69-.95.17.02,2.25.38,1.77.81h0Z"/>
  <path d="M99.11,15.82v-4.6c0-1.78-2.07-4.32-2.58-5.78-.06-.17-.32-1.12.15-.99,3.41,2.52,4.3,6.91,2.81,10.83-.08.21-.1.49-.38.54Z"/>
  <path d="M90.58,9.97c-1.74-1.83-2.97-4.23-5.13-5.65-.73-.48-1.62-.72-2.28-1.23-.51-.39.1-.8.16-.81,1.12-.05,3.82,1.87,4.67,2.67,1.38,1.3,2.22,3.18,2.59,5.02h-.01Z"/>
  <path d="M38.26,83.19c-.27.65-.55,1.21-1.01,1.75-1.3,1.52-3.48,3.05-5.43,3.61-.46.13-2.38.52-2.59.07-.12-.26.45-.43.63-.53,2.06-1.13,4.58-1.64,6.49-3.29l1.9-1.61h0Z"/>
  <path d="M107.8,28.36c.86-1.62,2.09-2.86,2.63-4.64.29-.96.35-2.52.7-3.31s.75-.24.84.36c.34,2.2-1.67,6.19-3.52,7.33-.21.13-.37.33-.65.27h0Z"/>
  <path d="M102.11,16.66c-.61-.31-.14-1.12-.16-1.59-.03-.73-.1-1.96-.2-2.65-.27-1.86-1.4-3.64-.98-5.45.55-.39,1.2,1.99,1.29,2.3.63,2.38.87,5.04.05,7.39Z"/>
  <path d="M51.8,23.68c0-.47-.09-.97.18-1.4.66-1.05,4.57-2.7,5.66-1.52,0,.26-1.85.76-2.23.94-.56.28-3.19,2.42-3.62,1.98h0Z"/>
  <path d="M112.48,105.92c-.33.13-.72-.67-.76-.83-.12-.39-.03-.8-.16-1.18-.8-2.36-2.25-4.57-2.76-7.02,2.5,2.24,3.49,5.76,3.67,9.03h.01Z"/>
  <path d="M91.92,8.13l-4.68-6.18c.25.11.52.02.78.12,1.19.46,3.89,3.65,4.17,4.88.13.57-.09.68-.27,1.18Z"/>
  <path d="M103.62,17.99c.65-2.97.14-6.01.42-9.02,1.15,1.95,1.21,5.71.5,7.85-.07.2-.59,1.44-.91,1.17h0Z"/>
  <path d="M109.8,15.99c.96.99-.29,6.76-1.42,6.68-.71-.05.35-2.67.4-3.11.15-1.19-.21-2.3.64-3.36.11-.13,0-.31.38-.21Z"/>
  <path d="M80.55,6.79l-7.52-3.42.28-.43c1.8-.46,5.13,1.7,6.49,2.85.14.12.94.82.76,1h-.01Z"/>
  <path d="M114.65,30.03c.01,1.96-1.86,3.87-3.46,4.82-.51.3-1.14.73-1.72.7,1.19-1.42,2.59-2.41,3.65-3.96.43-.62.49-1.75,1.53-1.56Z"/>
  <path d="M60.99,14.99c-.65,1.06-2.28.83-3.38,1.21-.95.33-1.56,1.12-2.8.79-.09-.86.94-1.38,1.63-1.62,1.5-.52,3.01-.33,4.55-.38Z"/>
  <path d="M105.96,19c-.46-.25.06-1.1.12-1.47.18-1.09.34-4.15.81-4.87.1-.16.27-.39.49-.35.29.19.25.45.27.75.03.55-.13,2.41-.22,2.97-.17,1.01-1.15,2.01-1.47,2.96h0Z"/>
  <path d="M51.18,57.15c-.77-1,3.34-6.15,4.57-6.59.28.32-1.94,2.87-2.26,3.33-.19.28-2.06,3.6-2.32,3.27h0Z"/>
  <path d="M114.49,27.36c.06,1.01-.74,1.23-1.25,1.84-.89,1.05-1.61,2.28-3.09,2.67.14-.27.25-.57.43-.82.57-.8,1.62-2.27,2.24-2.94.43-.45,1.01-1.02,1.68-.75h-.01Z"/>
  <path d="M48.29,60.12c-.23,1.34-.87,2.56-1.26,3.84-.23.78-.26,1.68-.53,2.48-.08.24-.29.8-.55.87-.29-1.38.06-2.77.5-4.1.33-.99.81-1.92,1.41-2.78.14-.2,0-.41.43-.31Z"/>
  <path d="M113.48,23.01c-.04,1.92-.72,4.32-2.59,5.18-.76.01.78-2.02.9-2.27.1-.2,1.16-3.5,1.69-2.9h0Z"/>
  <path d="M90.75,21c-.45.09-.29-.11-.42-.33-.48-.8-.69-1.64-1.22-2.47-.69-1.08-1.75-1.92-2.38-3.05.47-.54,1.97,1.15,2.25,1.51.93,1.22,1.59,2.8,1.77,4.33h0Z"/>
  <path d="M55.31,46.75c-.75,1.38-2,2.4-3.01,3.6-.56.67-.86,1.82-1.84,1.92.23-1.14,1.03-1.98,1.75-2.84.29-.35,2.75-3,3.09-2.67h0Z"/>
  <path d="M106.8,91.38c-.45.36-1.79-1.96-2.11-2.32-.35-.4-2.75-2.44-2.4-2.86,2.27.84,3.52,3.1,4.51,5.18Z"/>
  <path d="M105.12,103.75c-.22,0-.37-.45-.45-.63-.39-.87-.65-1.91-1.02-2.82-.35-.86-1.08-1.64-1.03-2.73,1.7,1.52,2.55,3.92,2.5,6.18Z"/>
  <path d="M70.02,35.55c.7.79-1.53-.26-1.63-.29-.76-.21-2.2-.5-2.97-.56-.45-.03-.98.36-1.41-.08.16-.17.19-.48.44-.56.86-.29,3.19.19,4.07.56.21.09,1.42.83,1.51.92h-.01Z"/>
  <path d="M66.01,30.03c-.12.4-.59.35-.92.35-1.33-.03-3.12-.25-4.52-.35-1.07-.08.13-.67.58-.76,1.5-.31,3.42.36,4.86.76Z"/>
  <path d="M84.56,32.87c-1.38-1.56-3.04-2.74-4.51-4.18,1.94.28,4.31,2.15,4.51,4.18Z"/>
  <path d="M62.5,42.4c.09-.25.64-.42.89-.53.46-.21,1.1-.48,1.58-.59.55-.13,3.27-.48,3.38.04.12.59-2.15.53-2.57.6-1.1.19-2.1.68-3.28.48Z"/>
  <path d="M63.5,40.73c.4.39-1.63,1.17-1.84,1.25-1.11.44-2.52.91-3.67,1.09,1.27-1.6,3.64-1.89,5.52-2.34h0Z"/>
  <path d="M60.83,77.26c0,.18.5.68-.16.58-.58-1.49-.64-3.03-.84-4.6l.5-1.92.5,2.92c.04,1-.05,2.01,0,3.01h0Z"/>
  <path d="M95.43,84.53c-.58-.5-3.21-5.43-3.01-5.68.78.38,1.17.94,1.59,1.67.64,1.12,1.24,2.76,1.42,4.01Z"/>
  <path d="M53.04,100.98c-.58.56-1.97,1.34-2.75,1.52-.23.05-.61.13-.67-.18-.09-.44,1.76-1.09,2.16-1.35.7-.45,1.6-1.26,2.1-1.91.33.8-.33,1.42-.85,1.91h0Z"/>
  <path d="M89.24,25.35l-3.51-5.85c.33-.07.45.07.68.24,1.42,1.04,2.71,3.86,2.83,5.61Z"/>
  <path d="M109.64,105.92c-.33-.06-.27-.36-.34-.58-.23-.7-.3-1.46-.51-2.17-.28-.97-.85-1.9-.82-2.93,1.37,1.44,2.21,3.71,1.67,5.68Z"/>
  <path d="M73.14,20.56c.06.07.24.43.22.45-1.65-.43-3.02-.83-4.77-1-.3-.03-.54.06-.74-.26.93-1.03,4.53,0,5.29.81Z"/>
  <path d="M59.71,49.98c-.75.83-.76,1.21-1.78,1.94-.16.12-.03.4-.28.34.34-2.05,2.27-3.59,4.01-4.51.32.34-1.76,2.02-1.95,2.23Z"/>
  <path d="M93.56,9.34c.05.03.67.89.74,1.01.45.85,1,2.71.21,3.46l-1.42-4.51c.15.01.32-.04.47.04Z"/>
  <path d="M50.63,60.29c-.13.95-.49,1.83-.65,2.78-.12.73.3,2.07-.69,2.24-.39-1.15-.1-2.27.21-3.38.08-.27.59-2.13,1.12-1.64h.01Z"/>
  <path d="M45.28,72.32c.23.31-.42,2.51-.59,3-.2.59-.65,2.05-1.25,2.18-.29-.34,1.04-4.34,1.4-4.87.14-.2,0-.41.43-.31h0Z"/>
  <path d="M97.54,87.94c.36.28,1.51,1.75,1.76,2.16.41.66.83,1.68.63,2.46-.22.19-1.41-2.19-1.53-2.39-.48-.8-1.31-1.36-1.31-2.45.03-.04.36.17.44.23h0Z"/>
  <path d="M101.45,82.35c-.8-.23-1.05-.86-1.58-1.34-.98-.89-1.96-1.6-2.6-2.83.21-.18,2.15,1.4,2.43,1.67.73.69,1.52,1.5,1.75,2.51h0Z"/>
  <path d="M107.3,96.06c-.95-.68-1.47-1.81-2.18-2.75-.24-.32-1.77-1.8-1.5-2.09.37.02.73.36,1,.58,1.17.96,2.33,2.79,2.67,4.26h.01Z"/>
  <path d="M89.75,38.72c-.21-1.02-2.53-2.53-2.65-3.29-.05-.3-.02-.36.22-.55.69.47,1.4.93,1.89,1.61.31.43,1.3,1.93.53,2.23h.01Z"/>
  <path d="M92.75,17.99l-3.17-5.68c.43-.47,3.91,4.71,3.17,5.68Z"/>
  <path d="M85.23,24.68l-1.84-1.92c-.8-.71-1.88-1.25-2.34-2.25.31-.25,2.04.94,2.35,1.24.62.61,1.76,2.08,1.83,2.93Z"/>
  <path d="M91.08,100.24c.02-1.93-1.24-3.59-1-5.52l.87,1.22c.38,1.23.68,2.43.47,3.72-.04.25,0,.52-.33.58h-.01Z"/>
  <path d="M61.49,43.41c-.27.39-.65.78-1,1.09-.64.56-1.65,1.44-2.3,1.92-.16.12-.92.61-1.04.5.77-1.78,2.46-3.05,4.35-3.51h0Z"/>
  <path d="M54.98,63.13c-.48,1.48-.48,3.03-.71,4.55-.05.34-.13,1.16-.45,1.3-.33-1.69-.28-4.07.74-5.54.14-.2,0-.41.43-.31h-.01Z"/>
  <path d="M65.67,25.02c.02.25-.41.27-.6.32-1.34.38-3.24.81-4.58.51,1.34-1.08,3.54-1.17,5.18-.83Z"/>
  <path d="M69.18,22.84l-.91-.17-.19.35c-1.3-.64-3.26.48-4.25-.51,1.77-.52,3.79-.92,5.35.33Z"/>
  <path d="M88.91,91.55l-.81-1.27-1.86-4.24c.51-.4,1.65,1.9,1.81,2.28.44,1.03.7,2.13.86,3.23Z"/>
  <path d="M70.19,29.19c-1.05-.23-2.09-.53-3.13-.79-.62-.16-1.58-.02-2.05-.71,1.13-.24,1.83-.12,2.92.18.7.19,2.04.53,2.27,1.33h0Z"/>
  <path d="M78.71,33.71c.04.31-.34.13-.51.09-.91-.21-1.57-.73-2.39-1.13-.94-.45-2.38-.56-2.45-1.81.4-.03.54.38.88.54.49.22,1.06.29,1.6.57,1.04.53,1.85,1.28,2.86,1.74h.01Z"/>
  <path d="M77,25.55c.11.17.15.53-.19.45-.64-.14-2.71-.98-3.39-1.29-.35-.16-.87-.34-1.06-.7,1.08-.12,1.93.09,2.9.52.23.1,1.69.93,1.74,1.01h0Z"/>
  <path d="M69.35,105.42c.18-1.12.88-2.06,1.25-3.17.17-.5-.03-1.24.58-1.51.34,1.82-.15,3.72-1.84,4.68h0Z"/>
  <path d="M93.42,32.04l-1.67-5.01c1.53.76,2.07,3.45,1.67,5.01Z"/>
  <path d="M84.23,79.18c-.76-.97-1.7-2.42-2.2-3.56-.18-.41-.34-.82-.3-1.28,1.26,1.15,2.39,3.15,2.5,4.85h0Z"/>
  <path d="M56.15,58.11c-.36-.37,1.81-4.07,2.67-4.18l-2,3.94-.68.24h.01Z"/>
  <path d="M72.36,85.03c-.3.37-.59-.82-.63-.96-.3-1.32-.45-3.03-.54-4.39l.67,1.25c.4,1.32.55,2.72.5,4.1Z"/>
  <path d="M51.63,69.48l-.29-1.7c.18-.72.3-1.46.51-2.18.2-.67.51-1.6.95-2.14-.18,2.05-.76,4.01-1.17,6.02Z"/>
  <path d="M66.34,16.82c-1.49-.33-3.08.09-4.51-.42,1.02-1.04,3.63-.65,4.51.42Z"/>
  <path d="M93.17,91.55c.43-.1,1.2,1.85,1.3,2.21.08.3.56,2.14.04,2.13l-1.52-3.83c-.14-.18.04-.48.18-.51Z"/>
  <path d="M72.36,34.54c-1.14-.26-2.22-.79-3.34-1.09-.62-.17-1.61-.03-2.01-.58,1.96-.62,3.9.48,5.35,1.67Z"/>
  <path d="M99.27,99.24c-.23-.04-.43-.55-.5-.75-.51-1.31-.81-2.83-1.5-4.1,1.7.71,1.96,3.23,2,4.85Z"/>
  <path d="M55.48,101.24l3.17-3.84c-.37,1.74-1.37,3.38-3.17,3.84Z"/>
  <path d="M95.76,104.92c-.45.04-.27,0-.33-.25-.34-1.39-.36-3.02-.67-4.43,1.34,1.2,1.35,3.04,1,4.68Z"/>
  <path d="M72.69,32.7c-1.28-.59-3-.86-4.23-1.37-.23-.1-.55-.18-.62-.46,1.77-.29,3.68.49,4.85,1.84h0Z"/>
  <polygon points="100.28 29.2 100.44 28.53 100.43 32.28 99.78 33.71 99.78 28.53 100.28 29.2"/>
  <path d="M57.65,41.9c.4.41-1.24,1.09-1.54,1.33-.67.55-1.28,1.63-2.3,1.67.16-.75,3.33-3.52,3.84-3.01h0Z"/>
  <path d="M91.08,33.04l-2.5-4.51c1.52.84,2.61,2.78,2.5,4.51Z"/>
  <path d="M42.94,73.66c.02-1.21.47-2.56.92-3.67.11-.28.32-.87.58-1,.24.82-.23,2.39-.54,3.22-.18.46-.58,1.14-.96,1.46h0Z"/>
  <path d="M71.19,15.82c-.82.25-1.69-.32-2.55-.54-.44-.11-1.43.19-1.46-.62,1.42-.51,2.99.15,4.01,1.17h0Z"/>
  <path d="M86.57,96.23c-.32-.06-.28-.35-.34-.58-.41-1.48-.46-3.14-.99-4.61,1.49,1.14,1.46,3.48,1.33,5.18h0Z"/>
  <path d="M81.05,33.54l-3.66-2.61-.35-.57c1.81.27,3.05,1.74,4.01,3.17h0Z"/>
  <path d="M47.45,100.41c.7-1.36,2.43-1.65,3.34-2.84-.32,1.76-1.61,2.68-3.34,2.84Z"/>
  <path d="M77.66,19.88c.31.31.19.69-.34.6-.29-.05-.63-.43-.95-.56-.73-.29-2.1-.42-2.34-1.25.41-.42,3.23.81,3.63,1.21Z"/>
  <path d="M43.44,88.04c-.4,1.34-1.69,2.78-3.18,2.67-.33-.29,1.26-1.21,1.42-1.34.25-.22,1.45-1.59,1.76-1.33Z"/>
  <path d="M105.07,96.45c.57.79,1.1,2.15,1.23,3.12-.45.09-.29-.12-.41-.33-.55-.92-1.84-2.82-2.18-3.68-.05-.14-.19-.45,0-.51.34.43,1.07.99,1.36,1.39h0Z"/>
  <path d="M94.76,89.04c-.25-.16-.55-.63-.7-.89-.65-1.1-1.34-2.45-1.8-3.63,1.44,1.04,2.39,2.75,2.5,4.51h0Z"/>
  <path d="M57.31,81.35c-.24.03-.3-.44-.32-.6-.06-.6,0-1.22,0-1.82l.83-2.76c.16,1.81-.17,3.43-.5,5.18Z"/>
  <path d="M74.37,79.51c-.52.09-.26-.14-.33-.41-.41-1.48-.88-3.09-1-4.6.23.09.49.61.59.83.6,1.27.81,2.79.75,4.18h0Z"/>
  <path d="M79.5,83.48s-.23.21-.29.27c-.33.29-.36-.81-.44-1.03-.23-.59-.67-1.23-.84-1.83-.08-.29-.3-.83.04-1.04.63.61,1.84,2.86,1.54,3.63h-.01Z"/>
  <path d="M91.08,36.55c-.93-1.26-2.08-2.37-2.67-3.84.56-.46,3.09,3.01,2.67,3.84Z"/>
  <path d="M101.61,89.71c-.58-.23-3.1-3.73-2.84-4.01,1.34.76,2.44,2.53,2.84,4.01Z"/>
  <path d="M77.49,13.03c.11.12.37.5.14.61-1.18-.88-2.99-1.08-3.93-2.17,1.13-.22,3.06.75,3.79,1.56Z"/>
  <path d="M63.67,85.03c-.03-1.49-.28-2.72.04-4.22.03-.16.06-.5.29-.46.13,1.5.84,3.47-.33,4.68Z"/>
  <path d="M84.23,83.02c-.36.08-.38-.18-.53-.39-.77-1.06-1.44-2.53-1.81-3.79.7.33,2.75,3.7,2.34,4.18Z"/>
  <path d="M69.52,72.99c.51.43,1.32,4.21.84,4.68-.45.05-.27,0-.33-.25-.33-1.38-.36-2.97-.83-4.35l.33-.08h0Z"/>
  <path d="M75.7,28.02l-3.01-.75-1.34-.75c1.49-.19,3.38.33,4.35,1.5Z"/>
  <path d="M57.32,71.07c0,.07-.16.48-.33.42-.46-1.68-.4-3.17,0-4.85.35.08.33.65.33.92,0,1.04.13,2.55,0,3.51Z"/>
  <path d="M88.41,106.26c-.15-.8.26-1.51.33-2.26.07-.71-.06-1.4-.08-2.09.51.63.79,1.27.76,2.09,0,.23-.5,2.85-1.01,2.25h0Z"/>
  <path d="M82.39,92.22l-1.05-2.37-.28-1.97c1.18,1.01,1.42,2.86,1.33,4.35h0Z"/>
  <path d="M101.28,24.01l.75-3.84c.81.02.24,3.63-.75,3.84Z"/>
  <path d="M95.77,16.49c.95.22,1.27,4.16.58,4.18-.33-.2-.21-.47-.25-.75-.17-1.12-.25-2.3-.33-3.43Z"/>
  <path d="M54.31,86.7l.24-2.01.92-2.33c.04,1.46.06,3.35-1.17,4.35h0Z"/>
  <path d="M95.43,39.06l-.85-4.25c-.16-.17-.1-.61.1-.6.72.06,1.24,4.16.75,4.84h0Z"/>
  <path d="M69.85,98.07l1-4.18c.36.99.37,1.67.09,2.68-.15.52-.45,1.47-1.09,1.5Z"/>
  <path d="M107.63,24.68c.46.59-1.57,3.47-2.34,3.68-.2-.23,1.62-2.98,1.91-3.36.14-.19,0-.42.43-.32Z"/>
  <path d="M97.77,28.02c.32-1.3.22-2.72.12-4.05-.01-.19-.34-.33.12-.29.64.7.68,1.86.59,2.76-.02.2-.45,2-.84,1.59h0Z"/>
  <path d="M86.4,30.2l-2.84-3.51c1.51.35,2.58,2.05,2.84,3.51Z"/>
  <path d="M70.19,70.48l-1.26-3.33-.07-.85c1.33.87,1.55,2.74,1.33,4.18Z"/>
  <path d="M56.65,63.46l.66-3.1,1.01-1.92c-.34,1.63-.61,3.72-1.67,5.01h0Z"/>
  <path d="M80.72,26.02l-3.34-1.92.51-.35c1.01.46,2.88.91,2.83,2.27Z"/>
  <path d="M94.93,28.02l-.46-1.3-.54-3.55.75,1.34c.36,1.18.55,2.28.25,3.51Z"/>
  <path d="M62,45.75c.08.35-.18.38-.38.54-.43.34-2.77,2.12-3.13,1.8-.06-.3.16-.4.33-.59.33-.37,2.92-1.99,3.18-1.75Z"/>
  <path d="M48.96,55.78c.15.16-1.11,3.05-1.84,3.01.03-1.08.64-2.79,1.84-3.01Z"/>
  <path d="M83.89,87.7c-.85-.92-1.61-2.6-1.84-3.84,1.15.86,1.81,2.41,1.84,3.84Z"/>
  <path d="M63.17,20.67c-1.2.06-2.52.36-3.68.17-.65-.87,3.44-1.04,3.68-.17Z"/>
  <path d="M108.13,37.39c-.36,1.01-.76,1.57-1.78,1.98-1.47.59-.38-.6.1-1.07.3-.29,1.34-1.25,1.68-.91Z"/>
  <path d="M64.17,77.34c-.24.04-.23-.3-.28-.47-.31-1.12-.55-2.59-.22-3.71.29.07.37.74.42.99.2.95.51,2.36.07,3.18h.01Z"/>
  <path d="M67.51,66.97l-1.18-2.58-.33-1.76c1.19,1.02,1.4,2.86,1.5,4.35h.01Z"/>
  <path d="M101.61,106.26c-.88-.8-.86-2.7-1-3.84,1,.9,1.22,2.57,1,3.84Z"/>
  <path d="M37.92,92.22c-.29,1.2-2.2,2.01-3.34,1.67l.55-.53,2.79-1.14Z"/>
  <path d="M43.61,67.64c-.16-1.47.56-3.1,1.5-4.18-.26,1.39-.61,3.09-1.5,4.18Z"/>
  <path d="M88.53,38.6c.49.5,1.14,2.39,1.05,3.13l-2-3.26c.02-.4.84,0,.95.13Z"/>
  <path d="M78.18,69.85c.26.15,1.62,3.4,1.36,3.98l-1.56-2.87-.28-1.14c.15.01.33-.05.47.03h0Z"/>
  <path d="M79.71,79.68c-.86-.92-1.13-2.51-1.67-3.68.85-.66,1.92,3.07,1.67,3.68Z"/>
  <path d="M84.56,11.81c-.32.07-.4-.18-.58-.33-.25-.2-2.02-1.96-1.75-2.17,1.09.25,2.53,1.24,2.34,2.51h0Z"/>
  <path d="M74.17,69.35c.51.33,1.21,3.26,1.03,3.97-.66-.44-.73-1.7-.95-2.47-.08-.26-.99-2.09-.08-1.5Z"/>
  <path d="M34.02,89.65c-.54.52-1.6.66-2.28.89l.75-1.01,2.01-1.17c.23.29-.26,1.08-.48,1.28h0Z"/>
  <path d="M75.37,36.39c0,.27-.73.32-.9.32-.24,0-3.51-.49-2.94-.99,1.38-.16,2.57.26,3.84.67Z"/>
  <path d="M90.58,87.54c-.86-1.09-2.08-2.59-2.17-4.01,1.09,1.16,1.9,2.41,2.17,4.01Z"/>
  <path d="M86.54,77.88c.45.41.84,2.47,1.03,3.13-.22-.08-.45-.32-.57-.52-.31-.5-1.25-2.42-1.4-2.95-.03-.12-.13-.36.04-.38.26.19.36.51.59.73.06.05.27-.06.3-.03v.02Z"/>
  <path d="M98.27,31.2c-.03.59.14,4.64-.75,4.68-.53.02.16-1.61.19-1.78.14-.78.18-1.68.23-2.48.02-.33-.13-.48.33-.41h0Z"/>
  <path d="M54.14,57.62c-.14.25-1.49,4.12-2,3.51-.03-1.15.84-2.35,1.57-3.2.14-.16,0-.42.44-.31h0Z"/>
  <path d="M75.7,15.66c1.38-.09,2.32.8,3.17,1.75-.31.42-.27.12-.51.01-.56-.24-1.85-.87-2.31-1.2-.2-.15-.41-.26-.35-.57h0Z"/>
  <path d="M82.22,107.26l.04-1.05.96-2.46c.02.36.19.71.18,1.08-.01.27-.69,3-1.18,2.43Z"/>
  <path d="M82.05,99.4c-.25-.07-.23-.91-.23-1.15-.02-1.11.23-2.26-.1-3.36.24.11.51.77.58,1.01.43,1.42.17,2.13-.25,3.5Z"/>
  <path d="M81.72,13.48c-.92-.05-1.56-.83-2.36-1.24-.46-.24-.67.12-.82-.76,1.41-.19,2.37,1.07,3.18,2Z"/>
  <path d="M49.13,79.51l-.08-.86,1.24-3.15c.02,1.3-.25,3.08-1.17,4.01h0Z"/>
  <path d="M60.16,61.96c-.1.95-.08,1.96-.18,2.91-.02.14-.17.89-.48.6-.07-.06-.17-1.69-.16-1.9.02-.25.31-1.93.82-1.61Z"/>
  <path d="M97.77,41.9l1.25-3.01c.76,1.05-.12,2.71-1.25,3.01Z"/>
  <path d="M85.23,104.25c-.22.05-.25-.27-.25-.41-.04-1.53.17-3.06-.08-4.6l.67,1.75-.34,3.26Z"/>
  <path d="M49.57,49.87c-.08.08-.58.42-.61.39.18-1.49,1.71-2.42,2.84-3.18l-2.23,2.78h0Z"/>
  <path d="M79.71,105.25l-.33-.08.92-3.59c.68,1.14-.05,2.63-.59,3.68h0Z"/>
  <path d="M100.94,84.69c-1.1-.65-2.14-1.47-2.67-2.67.77-.2,2.9,2.39,2.67,2.67Z"/>
  <path d="M40.5,93.79c-.69.7-1.17,1.05-2.24.93.43-1.06,1.93-1.08,2.76-1.84.27.39-.32.7-.52.9h0Z"/>
  <path d="M95.5,80.43c.36.4,1.87,2.76,1.6,3.09-1.09-.58-1.7-2.07-1.84-3.26.16-.26.16.07.24.16h0Z"/>
  <path d="M66.84,73.83c-.94-.84-.51-2.46-.84-3.59.25-.32.27-.06.38.13.08.14.46.98.46,1.04v2.42Z"/>
  <path d="M105.85,36.95c-.07.06-.07.51-.39.27-.35-.26,1.58-2.65,2-2.84.21,1.14-.84,1.93-1.61,2.57Z"/>
  <path d="M106.13,32.21c-.19.6-.26,1.13-.53,1.72-.07.14-1.23,1.88-1.47,1.62.3-.88.81-1.83,1.31-2.62.17-.27.29-.81.7-.72h0Z"/>
  <path d="M48.12,80.01c.16.16-.77,2.33-.96,2.63-.11.17,0,.29-.38.21-.15-.09.26-3.21,1.34-2.84Z"/>
  <path d="M62.16,69.48c-.25.04-.21-.31-.25-.5-.25-1.11-.38-2.23-.08-3.34l.5,1.59-.17,2.25Z"/>
  <path d="M71.02,12.81c-.79-.15-1.89-.3-2.6-.66-.24-.12-.47-.16-.41-.51.37-.37,2.83.45,3.01,1.17Z"/>
  <path d="M68.51,42.57c.27.3-.21.34-.34.41-.38.19-2.44.88-2.67.59-.19-.25.25-.43.41-.51.35-.18,2.37-.74,2.6-.49Z"/>
  <path d="M72.64,107.04c-.26.26-.62.29-.94.39-.15-.81.65-1.12,1.07-1.68.24-.31.27-.84.59-.99.12.76-.19,1.74-.72,2.28Z"/>
  <path d="M102.95,28.19c.05-1.03.67-2.39,1.33-3.18.12,1.18-.42,2.44-1.33,3.18Z"/>
  <path d="M99.11,19.5v-2.51c1.07.26,1.14,2.3,0,2.51Z"/>
  <path d="M62,44.41c-.09-.48.12-.27.36-.38.51-.23,1.46-.61,1.97-.37.09.04.5.47.5.5.02.31-1.36,0-1.59.25h-1.25,0Z"/>
  <path d="M104.79,30.37c.41.37-.39,2.47-1.17,2.51-.26-.35.55-1.76.76-2.17.06-.12.1-.61.4-.34h0Z"/>
  <path d="M89.69,80.24c.6.53,1.18,2,1.39,2.78-.56-.14-2.04-2.75-1.84-3.01.14.05.34.13.44.22h0Z"/>
  <path d="M93.09,41.9l-.84-2.84c.45-.51,1.7,2.59.84,2.84Z"/>
  <path d="M64.84,67.98l-.83-2.1.24-.9c.52,0,.89,2.53.58,3h.01Z"/>
  <path d="M76.49,35.09c.18.21.41.96-.03.79l-2.09-1.25c.37-.63,1.82.12,2.12.47h0Z"/>
  <path d="M85.9,37.05c-.74-.68-2.02-1.05-2.17-2.17.32-.22,2.42,1.45,2.17,2.17Z"/>
  <path d="M84,15.71c1.08,1.15,1.06,2.22-.44.52-.38-.42-.68-.95-1.01-1.41.18-.15,1.27.71,1.45.89Z"/>
  <path d="M105.96,22.51l1-2.5c.37,1.03.28,2.32-1,2.5Z"/>
  <path d="M54.81,104.59l.58-1.01,1.26-1.16c.68.77-1.56,2.44-1.84,2.17Z"/>
  <path d="M61.33,60.62c-.24.24-.31-.02-.34-.25-.11-.92.42-2.05,1.17-2.59l-.84,2.84h.01Z"/>
  <path d="M94.76,44.24l-.17-1.76.34-1.91c.21,1.26.33,2.47-.17,3.68h0Z"/>
  <path d="M77.04,104.75c.28-.05.18.41.17.59-.06.85-.39,1.29-.93,1.91-.66-.85.61-1.69.75-2.5h.01Z"/>
  <path d="M108.8,30.7c.1.87-.31,1.73-1.17,2.01-.14-.19.5-2.29,1.17-2.01Z"/>
  <path d="M61.49,55.44c.17.18-1.13,2.33-1.5,2.51.23-.86.4-2.39,1.5-2.51Z"/>
  <path d="M52.8,43.74c.19.18-1.54,1.99-1.84,1.67-.42-.65,1.68-1.82,1.84-1.67Z"/>
  <path d="M69.69,25.68c-.81-.01-2.03.15-2.51-.67.83-.02,1.94-.1,2.51.67Z"/>
  <path d="M55.64,41.07c.51.54-1.8,1.37-2.17,1.33-.35-.28,2.07-1.44,2.17-1.33Z"/>
  <path d="M97.27,38.89l.75-1.83c.53-.02.17,2.18-.75,1.83Z"/>
  <path d="M93.42,38.56c-.44.08-.29-.08-.41-.33-.12-.26-.56-1.51-.42-1.67.9.12.85,1.34.83,2Z"/>
  <path d="M99.44,38.06v-1.25l.33-1.42c.19.8.48,2.14-.33,2.67Z"/>
  <path d="M95.43,30.37c.44-.07.3.07.38.36.18.62.15.98-.03,1.59-.08.28.12.46-.36.39v-2.34h.01Z"/>
  <path d="M81.55,9.14c-.51.24-1.53-1.14-1.34-1.34.42-.13,1.65,1.03,1.34,1.34Z"/>
  <path d="M65.67,106.59c-.29-.29.89-1.36,1.17-1.5.08.69-.4,1.55-1.17,1.5Z"/>
  <path class="st3" d="M82.56,60.62c-.43.2-1.05.42-1.42.67-.7.47-2.28,2.27-2.87,2.48-.13.05-.26.03-.39.03l.33-.42c-.49-.61-.96.04-1.5.17-.59.15-1.96.61-1.68-.26.86-.02,1.7-.59,2.45-.99.32-.12.12.34.47.33.88,0,2.16-1.05,2.77-1.69l-2.26,1-.08-.33c-.64-.28-1.37.42-1.76.43-.12,0-.32-.22-.59-.21-1.01.05-2.44.45-3.45.16-.14-.04-.7-.36-.72-.47-.19-.81,2.17-.22,2.59-.23.49,0,.79-.22,1.22-.3s1.09.1,1.21-.71c-1.27.19-5.2.86-6.02-.08-.18-.21-.11-.38.09-.42.3-.06.81.28,1.18.32,1,.11,1.79-.13,2.75-.33v-.66l-3.26.16-2.43-.5c.59.12,1.08-.26,1.6-.32.49-.05,1.21.22,1.81.14s1.22-.51,1.94-.33c.01-.11-.22-.33-.25-.33h-3.01s-.93-.18-.92-.33c1-.07,2.56-.17,3.34-.84-1.44-.96-3.38.25-4.77-.16-.25-.07-.3.09-.25-.34.31.06,2.77-.32,2.51-.67l-.83-.33c.66-.11,1.25.15,1.87.22.89.1.71-.26.09-.59-1.49-.81-1.53.21-2.23.32-.28.04-.84-.17-1.32-.13-.65.06-1.21.63-1.92.34.73-1.23,2.35-.15,3.18-1.17l-2.67-.34.33-.33-1.42.17c-.27-.19-.3-.32-.01-.51.76-.49,2.52.02,3.43-.24-1.18-.99-3.07-.7-4.51-1.09.65-.96,1.93-.21,2.84-.42-.44-.35-1.14-.69-1.67-.84-.2-.06-.4.05-.56.03-.45-.08-.72-.5-1.28-.11-.1-.39.08-.28.21-.38,1.15-.91,1.96.28,2.96-.87.07-.34-.14-.24-.36-.3-.72-.2-1.4-.05-1.89-.79l.17-.33c1.48.24,2.82.87,4.26,1.34.1-.45-.13-.29-.33-.41-.55-.35-.77-.7-1.08-.92-.99-.7-1.47-.6-2.6-.67.54-1.27.94-.62,1.64-.38.36.12,2.41.82,2.54.72-.55-1.39-2.61-1.19-3.84-1.67.54-.7,2.07-.08,2.93,0,.29.03.6-.17.81-.14.22.04,1.33,1.38,1.61,1.13l-1.34-1.75c.34-.23.78.49,1.09.76.15.13.43.12.53.21.48.43.43,1.72,1.72.79l1.43,2.67c.83.41,1.5,1.26,1.78,2.15,1.36.29,2.6.3,3.98.2l-.29.46-2.05.37c1.33.64,2.37.2,3.68,0l-.26-.33.25-.33.3.59c0,.27-1.34,1.09-1.62,1.18-.73.22-1.94-.06-2.18.91.29.06.52-.05.79-.13,1.05-.32,2.01-.98,2.86-1.36.23-.11.7-.05.92-.17.17-.09.12-.42.29-.58.7-.68,1.56-.54,2.29-.89.43-.21.85-.88,1.37-.96.29-.05.48.28.68.18.09-.04,1.3-1.17,1.38-1.31.38-.71.65-1.82.62-2.63.4.24.5.05.83-.17-.08.79-.86,1.53-.18,2.26-.14.3-.63.29-.78.45-.23.25-.12.78-.24.93-.1.12-.93.12-.8.7.28.28,1.66-1.3,1.85-1.4.41-.23,1.11-.18,1.49-.52.34-.31.23-.99,1.1-.86.72.11-.19.75-.57.8l.14.31c-1.12-.28-.63.59-1.5.84l-.17-.33c-.09.53-1.17.7-1.51,1.17l.88.31,2.05-.98.08.33.25-.33.08.5.5.17c-.58.12-1.3.1-1.85.24s-1,.58-1.49.69c-.43.1-.51-.41-.53.37-1.02.18-2.35.97-3.14,1.64-.46.39-.43.73-.68.99-.39.39-1.56.85-2,1.34-.33.37.23.5.52.35l2.33-1.27-1.34,1.84,1.26-.49.58.74c-.15.37-1.15.46-1.51.83-.31.31-.68,1.15-1.08,1.6-.58.66-1.28,1.23-1.87,1.82-.36.36-.75.7-1.15,1.02-.2,0-.23-.2-.08-.41.28-.42,1.25-1.06,1.42-1.42.08-.17-.09-.31-.08-.33.14-.07.43-.02.73-.19.45-.25,1.91-2.1,1.61-2.49-.91.33-2.03,1.77-2.34,2.67v-.03ZM73.81,48.31c-.15-.17-1.02-.65-1.28-.47.65,1.07,1.45,1.91,2.5,2.59l-1.22-2.12ZM74.03,50.93c.27-.27-1.96-1.95-2.08-2.35l-.76-.16c.69.99,1.48,2.49,2.84,2.51ZM70.69,51.09c-.41-.58-1.14-.82-1.79-.97-.13-.03-.48-.36-.55.05-.11.65,1.84,1.13,2.34.92ZM75.7,52.27c-1.53.28-2.58-1.44-4.01-1.5.61.95,1.8,1.25,2.6,1.99.28.15.19-.28.35-.32.3-.08.98.19,1.06-.17ZM89.24,51.26c-.33-.26-3.99.92-3.84,2,.42.37,3.05-1.22,3.53-1.57.19-.14.42,0,.32-.43h-.01ZM78.21,52.43c-.7-.19-1.21-.67-2-.5-.08.43.08.3.33.41.2.09,1.84.77,1.67.09ZM85.57,52.1c-.93.09-1.92.62-2.51,1.33.47-.07,1.1-.35,1.51-.57.3-.16.79-.49.99-.76h.01ZM70.52,52.43c.51.07.82.45,1.3.62.28.1.67.31.87-.04-.38-.54-.96-.7-1.59-.75-.18-.02-.62-.12-.58.16h0ZM78.38,53.27c-.62.04-1.38-.13-1.96.12-.24.1-.25.04-.21.38.39.02.7.1,1.1.03.26-.04.96-.25,1.07-.53ZM74.87,53.93c-.54-.67-1.77-.28-2.51-.33.2,1.08,1.77.11,2.51.33ZM84.56,54.1c-.23-.17-2.3.74-2.65.94-.28.16-.74.33-.69.73,1.14-.11,2.11-.56,3.03-1.24.19-.14.42,0,.32-.43h0ZM75.37,55.77l-.24-.63-1.76.3c-.23.24.01.3.25.33.55.07,1.2-.05,1.76,0h-.01ZM77.71,56.45c-1.05-.43-1.78.36-2.84.33.37.52-.28.12-.17.67.96,0,2.27-.36,3.01-1ZM82.39,56.61c-.27-.21-2.1.91-2.34,1.25-.02.9,2.62-1.03,2.34-1.25ZM79.88,57.45c-1.18.36-2.55.87-3.63,1.46-.19.11-.28,0-.21.37.61.59,3.44-1.13,3.85-1.84h-.01ZM80.38,60.12c1.22-.05,2.56-.98,2.84-2.17l-.85.73c-.81.24-1.39.88-1.99,1.44ZM80.88,58.95c-.31-.28-3.2,1.32-3.51,1.84,1.16.08,2.31-.51,3.13-1.3.17-.16.47-.16.38-.53h0Z"/>
  <path class="st2" d="M95.76,56.11v1l-.67-.17c0,.17-.11.32-.13.46-.1.72.07,1.92.34,2.58.42,1.01,2.06,2.86,2.14,3.89.05.65.03,2.19-.03,2.82-.05.49-.36,1.88-.61,2.24-.35.51-1.05.76-1.47,1.2-.57.59-.88,1.51-1.69,1.99-.91.53-1.81.26-2.73.44-.3.06-.57.39-.93.41-.15.01-1.93-.45-2.12-.54-.42-.19-.72-.72-1.21-.97-1.3-.66-1.67-.39-2.73-1.77-.82-1.07-.86-1.94-1.03-3.23l.5.17c-.49-1.08-.36-2.19.84-2.67.14.47-.41.98-.45,1.28-.07.53.23,2.89.6,3.3.16.18.41.06.49.12.05.03-.06.6.61.82.59-.44-.65-.91-.83-1.18-.06-.09-.37-1.67-.37-1.87.01-1.7,1.25-1.99.96-3.64l.67.17-.17-.33.67-.17c.2.19-.57,1.23-.63,1.46-.1.39.04.79-.04,1.11-.03.13-.35.1-.34.19,0,.17,1.17,3.02,1.29,3.22.14.22.32.3.55.38.13-.62-.45-.89-.67-1.26-.27-.46.45.12.33-.33-.12-.49-.44-.77-.51-1.33-.1-.82.03-1.79.17-2.6.24-.25.3.02.33.25.14,1.12-.55,2.54.17,3.26l.08-.5c.16.14,1.12,1.84,1.42,1.5.16-.77-.46-1.23-.7-1.89-.46-1.25-.54-2.85-.25-4.17.07-.3.05-.55.45-.46-.47.76-.06,1.33-.17,2.08-.06.37-.35.57-.33.93.68-.67.97-.07,1,.67l-.5-.25c.27,1.09,1.09,1.79,2.17,2.09l-1-1.5.5.33-.67-1.26.34-.16c-.36-.37-.22-2.3-.1-2.78.07-.28.33-.27.42-.45.15-.29.01-1.09.68-1.04-.85,1.63-1.21,4.75.52,5.92.93.63.94-.17-.02-.24.36-.67-.14-.72-.29-1.12-.47-1.23-.32-2.86.14-4.1.04-.12.54-.25.32-.8l.5.09c-.86,1.67-1.23,3.85.5,5.1-.38-.83-.34-1.65-.67-2.42l.5-.09-.16-1c.47-.02,1.05,2.63,1.5,2.17-.32-.82-1.04-2.95-.66-3.71.12-.24.5.02.16-.8.63.28.27,1.11.37,1.54.14.62.6,1.69,1.05,2.14.62.62-.32-.92-.33-.98-.07-.4.26-.91-.09-1.36.31-.28,1.32,1.73,1.84,1.67.17-.2-1.14-2.38-1.51-2.62l.42-2.91,1.26-.32h.01ZM85.23,65.3c-.39-.08-.27.05-.38.21-.36.55-.35,1.23-.27,1.86,1.02.48,1.54,1.86,2.65,2.27.12-.11-1.91-2.18-1.98-2.46-.09-.37.26-1.33-.03-1.88h0ZM90.25,69.81c-.12-.41-.81-1.23-1.23-1.14-1.07.61.57.99,1.23,1.14Z"/>
  <path class="st2" d="M101.27,43.57c-.02,1.05,2.47,2.39,2.68,2.93.03.07,0,.17,0,.25l-.5-.33c-.1.53.68.63.83.92l-.5.42.33.17c.94-.49,2.6.65,3.27,1.33.23.24.41.31.24.67l.64-.15c.07.71.88.91,1.1,1.16.14.16,1.26,2.15,1.4,2.46.37.84.69,1.98.54,2.89l.33-.17-.16.92c-.37.26-1.54-.98-1.85-1.16-.85-.48-3.6-1.88-4.43-2.08-1.26-.32-3.39-.3-4.47-.69-.21-.08-.04-.34-.2-.33-.18.71-1,.19-1.5.2-2.21.06-4.47.08-6.68.31l.08-.34-.56-.18-.86.84-.58-.5.33.67c-.35.09-3.03.63-2.67,1.17l.5.16-.5.34c.56.16,1.16.26,1.75.16.53-.09.81-.55,1.22-.63.51-.1,1.17.23,1.71-.03l-.08.51-.59.16-.08-.34-.33.34-.59-.5-.25.67-.17-.33c-.21.16-.26.55-.53.64-.56.19-2.79.25-2.73-.73.44-.12.35-.34.33-.74l-.67.5c.27-1.09,1.81-1.86,2.83-2.25.2-.08.43.05.59,0,.79-.26,2.03-.94,2.87-.92.48,0,.21.64.73.49l-.17-.5,1.91-.18.26.34.09-.51c.54-.11.85.28,1,.28.11,0,.34-.27.66-.28,1.77-.07,2.58.06,4.25-.76.39-.19,1.4-1.03,1.49-1.06.23-.08,1.3-.11,1.38-.17.12-.78-1.55.38-.67-.83l-.58.17c-.36-.19-.06-.45-.12-.63-.02-.06-.86-.6-.88-.88-.32-.06-.32.1-.17.34.28.43.95.59.75,1.34l-.33-.17-.03.64-.64.19c.47-.55.56-1.33-.17-1.67.03,1.82-1.28,3-3.1,2.84-.83-.07-1.86-.58-1.59-1.5h-.67l.5-1.51c.33.35,1.24-.19,1.34.25.03.12-1.42,1.64-.05,2.05,2.41.73,3.56-2.58,1.22-3.73l.83.08-.25-.67-.08.33c-.89-.22-2.13.72-2.8.81-.27.04-.47-.02-.55-.31l.65-.02.18-.4-.5-.25c.04-1.08,1.11.06,1.17,0l.16-.6.99.08.19-.82c.26-.06.12.25.27.34.5.29.93.44,1.46.85.18.14.28.5.35.48.36-.1.19-.31,0-.5-.48-.48-2.48-2.4-2.42-.84l-.5-.17c.26-.55.85-.53.94-1.19l1.39-.15h.02ZM105.04,51.09c-.89-.02-1.78,0-2.67,0-.03,0-.49.16-.42.33,1.24.11,2.44-.16,3.68-.17-.02-.4-.45-.16-.58-.17h-.01Z"/>
  <path class="st3" d="M81.49,39.96c.24.09,1.03.67.48.93-.84-.62-1.67-.12-2.59-.16l.02.42c-1.29.53-2.74,1.58-2.86,3.09l-.17-.33c-.6.46-.53,1.93-1.67,1.51l.17.5-1,.42c.22.47.72,0,.83.08.05.04.33.86.48,1.12.69,1.13,1.34,1.97,2.37,2.81.03.12-.17.11-.25.08-.13-.05-1.58-1.1-1.7-1.23-.46-.5-.41-1.06-.65-1.44s-1.73-1.43-1.7-1.77c.37-.81,1.47-.87,1.97-1.33.86-.8,1.48-2.57,2.1-3.42s3.25-1.63,4.19-1.28h-.02Z"/>
  <path class="st3" d="M83.23,50.26c-.02-.11,0-.22,0-.33.86.2.98-.34,1.56-.55.27-.1.49.03.58,0,.31-.11,1.05-1.74,1.13-2.11.41-2-1.21-5.25-3.27-5.87l.16-.66c-.6.68-1.38,0-.83-.5.3-.28.35.34.43.35.22.02.42-.2.73-.1.51.16,3,2.83,3.18,3.35l-.34.17c-.03.18.2.3.23.42.15.62.43,1.88.46,2.59.04.94-.74,1.73-1.31,2.31-.08.08,0,.36-.15.46-.2.13-.55.08-.78.17-.14.06-.13.32-.24.33-.24.02-1.18,0-1.56,0,.02.11.23.3.17.5-1.73.23-4.04.39-5.18-1.17.61-.02,1.26.48,1.79.61.25.06.6-.38.56.21h.24l-.08-.33c.8.02,1.74.17,2.51.17v-.02Z"/>
  <path class="st2" d="M99.61,54.77c-.41.11-1.16.69-1.9.87-.16.04-1.09.21-1.1-.12-.01-.39.9-.08,1.17-.15.45-.12.95-.77,1.61-.91.29-.06.28.07.22.31.24-.07,1.53-.2,1.76-.18.32.03.23.32.35.35.72.19.41-.66,1.28-.16.09.05.09.25.25.32.18.07,2.26.59,2.21.76-.22.79-2.02.24-2.59-.08-.7.75-2.57.02-3.66.51-.13,0-.05-.62-.52-.18l-.08-.33c.38.09.88-.42,1.14-.3.04.02.02.24.11.27.23.07,1.66-.25,1.99-.32l.18.35.58-.42-3.18-.25c-.06-.04.14-.24.17-.33h.01Z"/>
  <path class="st3" d="M84.8,47.49c.44-.51.32-.82.76-1.24-.01,3.61-4.77,3.58-6.89,1.67-.85-.76-1.94-2.99-.8-3.85-.78,3.89,4.44,6.34,6.93,3.42Z"/>
  <path d="M88.48,44.5c.65.7-.06,1.98-.07,2.92.48.16.28-.29.33-.33.16-.12.36-.06.33.24-.03.28-.59,1.59-.75,1.76-.36.38-.79-.18-.42.82l-.91.52-.16-.34-.71.84-2.05.83c-.33-.31,1.55-1.42,1.93-1.32l.08-.68c.59.34,1.09-.2,1.41-.68.6-.92,1.32-3.63.6-4.58l.33-.25c-.01.1,0,.18.08.25h-.02Z"/>
  <path class="st3" d="M79.05,38.72c.09.52-.16.25-.41.33-.23.07-1.51.47-1.56.53-.09.1-.04.54-.15.77-.09.19-.88,1-1.13,1.39-.46.73-1.19,2.41-1.65,2.96-.24.28-1.13.4-1.37.87l-.33-.33c-.12.2-.59.46-.75.33-.32-.26.24-.36.33-.41.99-.6,1.54-.74,2.34-1.68,1.54-1.82,1.59-5.04,4.68-4.76Z"/>
  <path class="st2" d="M83.51,42.62s.51.69.52.74c.18.76-.79,1.47-1.05.73l-1.02.42-.37-.13c-.86-1.3.76-2.66,1.92-1.75h0Z"/>
  <path class="st2" d="M98.77,68.14c-.06-.07.5-1.08.54-1.12.14-.12.44-.07.56-.21.11-.13-.09-.42-.01-.67.03-.11.58-1.05.74-1.4.06-.13.35-.1.34-.19-.02-.12-.24-.36-.26-.58-.08-1,0-1.38-.22-2.46-.02-.11-.31-1.02.06-.9.41.3.1.68.24,1.09.37,1.14.74,1.29.48,2.8-.2,1.19-1.27,3.18-2.47,3.63h0Z"/>
  <path class="st3" d="M77.88,48.92l-.08.33-.51-.15-2.08-2.77.5.09.17-1.17c.9,1.05.57,3.06,2,3.68h0Z"/>
  <path class="st2" d="M72.36,39.89c-1.31-.5-2.63-.29-4.07-.6-.15-.03-.39.28-.28-.23,1.32-.35,2.7-.36,3.94.33.23.13.49.13.41.51h0Z"/>
  <path class="st2" d="M100.78,76.17l-2.59-1.84-1.42-1.5c1.04.48,2.08,1.24,2.92,2.01.19.17,1.27,1.13,1.09,1.33Z"/>
  <path class="st2" d="M68.68,37.72c.04.31-.33.12-.51.09-.55-.08-1.09-.28-1.64-.33-.69-.07-1.52.28-2.2-.18.45-.46.67.32.65-.51.68-.39,2.85.82,3.69.93h0Z"/>
  <path class="st2" d="M97.27,50.59c.06.5-.06.28-.37.29-1.08.04-2.16-.31-3.31.21v-.67l3.68.17Z"/>
  <path class="st3" d="M93.22,58.41c-.17.19-1.03.23-1.21.71-.38-.57.98-1.09,1.05-1.2.15-.26.13-.94-.3-.8l.75-.83c.31.21.2.25.17.51-.02.18-.4,1.55-.47,1.62h.01Z"/>
  <path class="st3" d="M85.9,59.45l.92-1c.23.12,0,.44-.07.59-.15.28-1.61,1.97-1.85,1.74.38-.57.65-1.38,1-1.92.04-.06.42-.53.5-.33l-.5.92Z"/>
  <path class="st2" d="M98.94,64.63v-.67l.25.33c.32-.12-.09-1.95.5-2.34.56.39-.02.82-.08,1.26-.09.68.48,1.42-.67,1.41h0Z"/>
  <path class="st2" d="M97.34,75.44c.67.41,0,.3-.24.14-.2-.13-2.49-1.79-2.35-1.92.91.39,1.98,1.01,2.58,1.77h0Z"/>
  <path class="st3" d="M80.89,62.96c-.71.88-1.51,1.91-2.67,2.17.59-.57,1.32-1.3,1.95-1.81.12-.1.59-.48.72-.36Z"/>
  <path class="st2" d="M99.78,73.16c-.23.2-2.1-1.55-2.34-1.84.96.3,1.93.86,2.34,1.84Z"/>
  <path class="st2" d="M84.73,61.79c.15.81-.55,1.36-.92,2-.62-.65.54-1.57.92-2Z"/>
  <path class="st2" d="M96.07,48.77l-.81.15.84-.33c-.18-.65-.5-.97-.17-1.67l.66,2.09-.33.17-.19-.4h0Z"/>
  <path class="st3" d="M89.58,45.75l.33-.17c.14.21-.08,1.4-.5,1.5-.08-.5-.18-1.03-.11-1.54.03-.18.02-.67.28-.63v.84Z"/>
  <path class="st2" d="M81.72,69.48c0,.83.59,1.16.84,1.84-.32-.14-.58-.13-.8-.45-.12-.17-.73-1.59-.03-1.39h0Z"/>
  <path class="st2" d="M56.48,93.55l1.08-3.01c.37.25.15.31.09.58-.04.19-.7,2.94-1.17,2.43Z"/>
  <path class="st2" d="M50.63,83.86c-.33.03-.12-.5-.09-.68.1-.54.32-1.49.76-1.83-.07.88-.37,1.69-.67,2.51Z"/>
  <path class="st2" d="M67.34,90.21l-.16-.58v-2.59c.29.07.34.85.34,1.08.01.74-.2,1.37-.18,2.09Z"/>
  <path d="M89.24,51.26c.1.43-.13.29-.32.43-.48.35-3.1,1.94-3.53,1.57-.14-1.08,3.51-2.26,3.84-2h.01Z"/>
  <path d="M79.88,57.45c-.4.7-3.23,2.42-3.85,1.84-.07-.38.02-.27.21-.37,1.09-.6,2.45-1.1,3.63-1.46h.01Z"/>
  <path d="M80.88,58.95c.09.37-.22.37-.38.53-.81.79-1.96,1.39-3.13,1.3.31-.51,3.2-2.12,3.51-1.84h0Z"/>
  <path d="M74.03,50.93c-1.36,0-2.15-1.51-2.84-2.51l.76.16c.12.4,2.35,2.08,2.08,2.35Z"/>
  <path d="M84.56,54.1c.1.43-.13.29-.32.43-.91.68-1.89,1.13-3.03,1.24-.05-.4.41-.57.69-.73.35-.2,2.43-1.11,2.65-.94h0Z"/>
  <path d="M75.7,52.27c-.08.36-.76.09-1.06.17-.15.04-.07.47-.35.32-.81-.75-2-1.04-2.6-1.99,1.43.07,2.48,1.78,4.01,1.5Z"/>
  <path d="M77.71,56.45c-.74.64-2.05,1-3.01,1-.12-.55.54-.15.17-.67,1.06.03,1.79-.77,2.84-.33Z"/>
  <path d="M73.81,48.31l1.22,2.12c-1.06-.68-1.85-1.52-2.5-2.59.26-.18,1.14.3,1.28.47Z"/>
  <path d="M80.38,60.12c.6-.56,1.18-1.2,1.99-1.44l.85-.73c-.28,1.19-1.62,2.12-2.84,2.17Z"/>
  <path d="M70.69,51.09c-.5.21-2.45-.26-2.34-.92.07-.41.42-.08.55-.05.65.15,1.38.39,1.79.97Z"/>
  <path d="M82.39,56.61c.28.23-2.35,2.15-2.34,1.25.23-.35,2.07-1.47,2.34-1.25Z"/>
  <path d="M74.87,53.93c-.73-.22-2.31.75-2.51-.33.74.05,1.97-.34,2.51.33Z"/>
  <path d="M70.52,52.43c-.04-.29.4-.18.58-.16.63.05,1.21.21,1.59.75-.2.35-.59.14-.87.04-.48-.18-.79-.55-1.3-.62h0Z"/>
  <path d="M75.37,55.77c-.56-.05-1.21.07-1.76,0-.23-.03-.48-.09-.25-.33l1.76-.3.24.63h.01Z"/>
  <path d="M85.57,52.1c-.2.28-.69.6-.99.76-.41.23-1.04.5-1.51.57.58-.71,1.58-1.24,2.51-1.33h-.01Z"/>
  <path d="M78.38,53.27c-.11.28-.81.49-1.07.53-.4.07-.71,0-1.1-.03-.04-.33-.03-.27.21-.38.58-.25,1.34-.08,1.96-.12Z"/>
  <path d="M78.21,52.43c.17.68-1.48,0-1.67-.09-.25-.12-.41.02-.33-.41.79-.16,1.3.31,2,.5Z"/>
  <path d="M85.23,65.3c.28.55-.07,1.51.03,1.88.07.28,2.1,2.36,1.98,2.46-1.11-.41-1.63-1.79-2.65-2.27-.08-.63-.09-1.31.27-1.86.11-.16-.01-.3.38-.21h0Z"/>
  <path d="M90.25,69.81c-.66-.15-2.3-.53-1.23-1.14.42-.09,1.11.73,1.23,1.14Z"/>
  <path d="M105.04,51.09c.13,0,.56-.24.58.17-1.23,0-2.44.28-3.68.17-.07-.17.39-.33.42-.33.89,0,1.78-.02,2.67,0h.01Z"/>
  <g class="st1">
    <g class="st1">
      <path class="st0" d="M60.32,126.01c-.06-.09-.09-.24-.09-.45v-1.9c0-.94-.03-2.09-.08-3.44-.01-.25-.02-.61-.02-1.08-.04-.99-.06-1.76-.06-2.33l.02-1.17c.01-.35.02-.74.02-1.17,0-.38,0-.71-.02-1-.01-.21-.02-.38-.03-.52,0-.14-.02-.25-.03-.33l-.04.15c-.15,1.01-.38,2.35-.69,4s-.56,2.98-.75,3.98c-.19.89-.32,1.52-.38,1.9-.03.18-.09.33-.18.44-.09.11-.19.17-.3.17s-.21-.06-.29-.17c-.08-.11-.13-.27-.15-.48-.1-.67-.45-2.53-1.06-5.58-.61-3.06-.95-4.64-1.02-4.75-.04,1.25-.06,2.65-.06,4.21,0,1.22,0,2.33.02,3.31.01.99.02,2.09.02,3.31,0,.21.02.54.06.98l.04,1c0,.26-.05.45-.15.54-.4,0-.6-.36-.6-1.08v-3.48l.02-2.11c.01-.62.02-1.33.02-2.12,0-.92,0-1.74.02-2.46l.04-2.48v-1.83c0-.07.03-.13.09-.19s.13-.08.2-.08c.11,0,.19.06.23.17.12.42.44,1.65.94,3.69.5,2.04.88,3.62,1.12,4.73.13.65.33,1.81.6,3.46l.15-.81c.04-.25.1-.6.19-1.04.17-1.08.27-1.69.31-1.83l.96-5.11.19-1.08.23-1.17.1-.62c.01-.14.06-.25.12-.32.07-.08.15-.11.23-.11.07,0,.13.03.19.1.06.07.08.17.08.29v2.06c0,1.04.06,2.62.19,4.73.1,1.95.15,3.51.15,4.69,0,.38.02.95.06,1.73.03,1,.04,1.7.04,2.08,0,.31-.02.51-.06.6-.06.08-.13.12-.23.12-.18,0-.3-.05-.36-.14Z"/>
      <path class="st0" d="M63.74,118.4v-.73c0-3.88.5-5.81,1.5-5.81.07,0,.17.02.29.06.44.15.88.25,1.31.29.26.06.53.33.79.81.29.5.51,1.16.66,1.98s.22,1.66.22,2.52l-.04.1c0,.46,0,.87.02,1.23l.02,1.25c0,.71-.03,1.35-.08,1.92-.08.86-.22,1.61-.42,2.23-.12.38-.27.69-.43.94-.16.25-.36.46-.59.62-.22.17-.49.25-.81.25-1.63,0-2.44-2.56-2.44-7.67ZM67.31,124.32c.26-.78.42-1.57.48-2.38.06-.83.08-1.5.08-2,0-.55-.04-1.38-.12-2.46-.07-1.21-.1-2.03-.1-2.46l-.08-.17.04-.1c0-.61-.17-1.14-.51-1.58s-.75-.67-1.24-.67c-.64,0-1.02.31-1.15.92-.03.21-.06.51-.08.9,0,1.03-.04,1.73-.12,2.1,0,.21-.02.54-.06.98l-.04.98c0,.31,0,.58.02.81l.02.83c0,.65.06,1.4.17,2.25.08.62.18,1.15.29,1.58.11.43.27.8.48,1.1.21.33.45.5.73.5.54,0,.94-.38,1.21-1.15Z"/>
      <path class="st0" d="M79.04,125.42v-1.38c0-2-.04-3.56-.12-4.69l-.06-.77c-.06-.35-.08-.65-.08-.92,0-.47.01-.9.04-1.29l.04-1.29c0-.43-.03-.76-.08-.98-.28.2-1.12,3.12-2.52,8.77l-.02.31c-.04.35-.1.62-.17.83-.04.15-.1.27-.18.35s-.16.12-.26.12c-.22,0-.38-.06-.48-.17-.1-.11-.15-.28-.15-.52,0-.38-.18-1.35-.53-2.92-.35-1.57-.74-3.08-1.15-4.52-.41-1.44-.69-2.24-.84-2.4-.01.49-.07,1.63-.17,3.44-.19,3.2-.29,5.71-.29,7.54l.02.83c-.06.18-.2.27-.44.27-.04,0-.11-.04-.21-.11-.1-.08-.15-.14-.15-.18,0-1.25.11-3.45.33-6.59.21-2.92.31-5.11.31-6.56,0-.07-.01-.14-.04-.21-.04-.08-.06-.15-.06-.19,0-.21.18-.31.54-.31.24,0,.38.1.42.31.05.28.08.49.08.62l.02.25c.07.36.27.92.6,1.67.26.6.47,1.12.6,1.56.08.33.16.6.23.81.22.81.37,1.4.44,1.79l.27.54c.04.21.12.55.25,1.02.12.53.22.96.27,1.29.05.33.08.65.08.96.15-.24.59-1.66,1.3-4.26.72-2.6,1.14-4.27,1.26-4.99.01-.03.02-.07.03-.11s.02-.11.03-.2c.03-.18.09-.45.19-.81.11-.28.28-.42.5-.42.1,0,.21.04.33.12.12.08.19.17.19.25,0,5.79.09,8.86.27,9.19v1.08c-.01.32-.02.69-.02,1.1,0,.89.05,1.56.15,2,.01.01.02.03.03.06,0,.03.02.06.03.1.01.06.02.12.02.19,0,.15-.05.31-.14.46-.09.15-.2.23-.32.23-.28,0-.42-.45-.42-1.33ZM78.77,113.98h-.02l-.04.02.06.02v-.04Z"/>
      <path class="st0" d="M82.77,118.4v-.73c0-3.88.5-5.81,1.5-5.81.07,0,.17.02.29.06.44.15.88.25,1.31.29.26.06.53.33.79.81.29.5.51,1.16.66,1.98.15.82.22,1.66.22,2.52l-.04.1c0,.46,0,.87.02,1.23l.02,1.25c0,.71-.03,1.35-.08,1.92-.08.86-.22,1.61-.42,2.23-.12.38-.27.69-.43.94-.16.25-.36.46-.59.62-.22.17-.49.25-.81.25-1.63,0-2.44-2.56-2.44-7.67ZM86.33,124.32c.26-.78.42-1.57.48-2.38.05-.83.08-1.5.08-2,0-.55-.04-1.38-.12-2.46-.07-1.21-.1-2.03-.1-2.46l-.08-.17.04-.1c0-.61-.17-1.14-.51-1.58-.34-.44-.75-.67-1.24-.67-.64,0-1.02.31-1.15.92-.03.21-.06.51-.08.9,0,1.03-.04,1.73-.12,2.1,0,.21-.02.54-.06.98l-.04.98c0,.31,0,.58.02.81l.02.83c0,.65.06,1.4.17,2.25.08.62.18,1.15.29,1.58.11.43.27.8.48,1.1.21.33.45.5.73.5.54,0,.95-.38,1.21-1.15Z"/>
    </g>
  </g>
  <g class="st1">
    <g class="st1">
      <path class="st0" d="M49.18,138.05s-.04-.09-.04-.17v-.72c0-.36-.01-.8-.03-1.31,0-.1,0-.23,0-.41-.02-.38-.02-.67-.02-.89v-.45c.01-.13.02-.28.02-.45,0-.14,0-.27,0-.38,0-.08,0-.15-.01-.2,0-.05,0-.1-.01-.13l-.02.06c-.06.39-.15.9-.26,1.53-.12.63-.21,1.14-.29,1.52-.07.34-.12.58-.14.72-.01.07-.03.12-.07.17-.03.04-.07.06-.12.06s-.08-.02-.11-.06c-.03-.04-.05-.1-.06-.18-.04-.25-.17-.97-.41-2.13-.23-1.17-.36-1.77-.39-1.81-.02.48-.02,1.01-.02,1.61,0,.47,0,.89,0,1.27,0,.38,0,.8,0,1.27,0,.08,0,.21.02.38l.02.38c0,.1-.02.17-.06.21-.15,0-.23-.14-.23-.41v-2.13c.01-.24.02-.51.02-.81,0-.35,0-.66,0-.94l.02-.95v-.7s.01-.05.04-.07c.02-.02.05-.03.08-.03.04,0,.07.02.09.06.05.16.17.63.36,1.41.19.78.33,1.38.43,1.81.05.25.12.69.23,1.32l.06-.31c.02-.09.04-.23.07-.4.06-.41.1-.65.12-.7l.37-1.95.07-.41.09-.45.04-.24c0-.05.02-.09.05-.12.03-.03.06-.04.09-.04.03,0,.05.01.07.04.02.03.03.06.03.11v.79c0,.4.02,1,.07,1.81.04.74.06,1.34.06,1.79,0,.14,0,.36.02.66.01.38.02.65.02.8,0,.12,0,.19-.02.23-.02.03-.05.05-.09.05-.07,0-.12-.02-.14-.05Z"/>
      <path class="st0" d="M50.49,135.14v-.28c0-1.48.19-2.22.57-2.22.03,0,.06,0,.11.02.17.06.34.1.5.11.1.02.2.12.3.31.11.19.2.44.25.76.06.31.08.63.08.96l-.02.04c0,.17,0,.33,0,.47v.48c0,.27,0,.51-.02.73-.03.33-.08.61-.16.85-.05.14-.1.26-.16.36-.06.09-.14.17-.23.24-.08.06-.19.1-.31.1-.62,0-.93-.98-.93-2.93ZM51.85,137.4c.1-.3.16-.6.18-.91.02-.32.03-.57.03-.76,0-.21-.02-.53-.05-.94-.03-.46-.04-.78-.04-.94l-.03-.06.02-.04c0-.23-.07-.44-.2-.61-.13-.17-.29-.25-.47-.25-.24,0-.39.12-.44.35-.01.08-.02.19-.03.34,0,.39-.02.66-.05.8,0,.08,0,.2-.02.37l-.02.37c0,.12,0,.22,0,.31v.32c0,.25.03.54.07.86.03.24.07.44.11.61.04.16.1.3.18.42.08.13.17.19.28.19.21,0,.36-.15.46-.44Z"/>
      <path class="st0" d="M53.74,137.89c-.12-.06-.2-.17-.26-.34s-.1-.43-.15-.8c-.06-.54-.1-.95-.1-1.25,0-.18.01-.39.03-.62l.05-.5c.03-.4.06-.7.09-.9.03-.2.11-.38.23-.54.12-.16.3-.25.55-.27.03,0,.07,0,.13,0,.16,0,.25.04.25.11,0,.03-.02.06-.05.08-.03.02-.07.04-.11.04h-.08s-.07-.02-.07-.02c-.09,0-.17.03-.24.09-.07.06-.13.14-.18.25-.11.26-.18.53-.21.78-.04.33-.07.63-.08.88v.61c0,.26,0,.45.02.58.04.06.06.15.08.27.01.12.02.28.04.49.01.19.03.34.07.47s.1.24.2.32c.11.09.25.14.44.14.15,0,.26-.08.33-.25.07-.18.12-.37.13-.56.02-.24.02-.44.02-.6v-.44c-.05-.05-.15-.08-.28-.08h-.06s-.06,0-.09,0c-.13,0-.19-.03-.19-.1,0-.09.06-.13.19-.13.09,0,.16,0,.22,0h.18c.1.02.18.04.24.06.06.02.1.05.1.09,0,.07-.02.17-.05.29-.03.15-.04.25-.04.3,0,.22,0,.42.02.61,0,.19,0,.39,0,.61-.27.28-.54.41-.81.41-.24,0-.42-.03-.54-.09Z"/>
      <path class="st0" d="M56.5,138.01s-.04-.04-.05-.06c.05-.13.07-.59.07-1.39,0-.15,0-.37-.02-.66l-.04-.57-.05-.1.02-.1c-.03-.07-.08-.2-.14-.37-.06-.17-.13-.35-.19-.53-.19-.5-.32-.87-.37-1.09-.03-.11-.06-.2-.07-.29l.11-.09c.05.01.13.18.23.51.08.23.15.46.21.69l.1.3c.1.33.16.5.21.51l.03-.14-.02-.04c.04-.05.1-.24.16-.57.07-.37.14-.68.2-.94.07-.3.14-.45.21-.45.03,0,.05,0,.07.02.02.02.03.04.03.06,0,.08-.08.39-.24.94-.08.26-.15.5-.2.73-.06.27-.1.51-.1.72.03.05.04.1.04.13,0,.03,0,.06-.02.11-.02.05-.02.09-.02.12,0,.03.01.15.03.36.02.14.03.27.03.37,0,.23,0,.44,0,.63v.67c0,.36-.06.54-.17.54-.02,0-.04-.01-.06-.03Z"/>
      <path class="st0" d="M58.06,135.14v-.28c0-1.48.19-2.22.57-2.22.03,0,.06,0,.11.02.17.06.34.1.5.11.1.02.2.12.3.31.11.19.2.44.25.76.06.31.08.63.08.96l-.02.04c0,.17,0,.33,0,.47v.48c0,.27,0,.51-.02.73-.03.33-.08.61-.16.85-.05.14-.1.26-.16.36-.06.09-.14.17-.23.24-.08.06-.19.1-.31.1-.62,0-.93-.98-.93-2.93ZM59.42,137.4c.1-.3.16-.6.18-.91.02-.32.03-.57.03-.76,0-.21-.02-.53-.05-.94-.03-.46-.04-.78-.04-.94l-.03-.06.02-.04c0-.23-.07-.44-.2-.61-.13-.17-.29-.25-.47-.25-.24,0-.39.12-.44.35-.01.08-.02.19-.03.34,0,.39-.02.66-.05.8,0,.08,0,.2-.02.37l-.02.37c0,.12,0,.22,0,.31v.32c0,.25.03.54.07.86.03.24.07.44.11.61.04.16.1.3.18.42.08.13.17.19.28.19.21,0,.36-.15.46-.44Z"/>
      <path class="st0" d="M62.14,138.02c-.06-.07-.13-.25-.21-.55-.07-.3-.14-.63-.21-1-.04-.3-.1-.6-.18-.9-.06-.26-.12-.4-.18-.4h-.02c-.12,0-.17.04-.17.11,0,.38.02.96.06,1.74.02.48.04.76.07.84l-.06.13h-.11l-.06-.06c-.08-2.45-.13-4.12-.13-5.01,0-.06,0-.11.01-.14,0-.04.02-.07.05-.1.02-.04.06-.06.11-.06.27,0,.49.07.65.2s.25.32.25.57v.58c0,.1-.03.24-.1.41s-.14.33-.22.47l-.1.2c.06.27.17.76.35,1.46s.27,1.08.28,1.12c0,0,.01.02.02.04,0,.02.03.05.05.1.04.07.06.14.06.19,0,.07-.03.11-.09.11l-.11-.04ZM61.47,134.82c.08-.1.14-.23.19-.39.08-.32.13-.58.13-.77,0-.12,0-.22-.02-.3-.01-.08-.04-.16-.07-.25-.06-.19-.21-.28-.45-.28-.03,0-.05.02-.06.07-.02.05-.02.09-.02.14,0,.36,0,.68.02.96,0,.29,0,.61,0,.96l.02.02c.1,0,.19-.05.27-.15Z"/>
      <path class="st0" d="M63.13,135.14v-.28c0-1.48.19-2.22.57-2.22.03,0,.06,0,.11.02.17.06.34.1.5.11.1.02.2.12.3.31.11.19.2.44.25.76.06.31.08.63.08.96l-.02.04c0,.17,0,.33,0,.47v.48c0,.27,0,.51-.02.73-.03.33-.08.61-.16.85-.05.14-.1.26-.16.36-.06.09-.14.17-.23.24-.08.06-.19.1-.31.1-.62,0-.93-.98-.93-2.93ZM64.49,137.4c.1-.3.16-.6.18-.91.02-.32.03-.57.03-.76,0-.21-.02-.53-.05-.94-.03-.46-.04-.78-.04-.94l-.03-.06.02-.04c0-.23-.07-.44-.2-.61-.13-.17-.29-.25-.47-.25-.24,0-.39.12-.44.35-.01.08-.02.19-.03.34,0,.39-.02.66-.05.8,0,.08,0,.2-.02.37l-.02.37c0,.12,0,.22,0,.31v.32c0,.25.03.54.07.86.03.24.07.44.11.61.04.16.1.3.18.42.08.13.17.19.28.19.21,0,.36-.15.46-.44ZM63.93,132.44s-.04-.05-.04-.08c0-.02.07-.08.22-.21l.25-.21.21-.17c.18-.14.28-.22.29-.23.12,0,.18.04.18.12l-.02.13c-.28.13-.61.35-1,.68-.04,0-.07-.01-.1-.03Z"/>
      <path class="st0" d="M69.58,138.05s-.04-.09-.04-.17v-.72c0-.36-.01-.8-.03-1.31,0-.1,0-.23,0-.41-.02-.38-.02-.67-.02-.89v-.45c.01-.13.02-.28.02-.45,0-.14,0-.27,0-.38,0-.08,0-.15-.01-.2,0-.05,0-.1-.01-.13l-.02.06c-.06.39-.15.9-.26,1.53-.12.63-.21,1.14-.29,1.52-.07.34-.12.58-.14.72-.01.07-.03.12-.07.17-.03.04-.07.06-.12.06s-.08-.02-.11-.06c-.03-.04-.05-.1-.06-.18-.04-.25-.17-.97-.41-2.13-.23-1.17-.36-1.77-.39-1.81-.02.48-.02,1.01-.02,1.61,0,.47,0,.89,0,1.27,0,.38,0,.8,0,1.27,0,.08,0,.21.02.38l.02.38c0,.1-.02.17-.06.21-.15,0-.23-.14-.23-.41v-2.13c.01-.24.02-.51.02-.81,0-.35,0-.66,0-.94l.02-.95v-.7s.01-.05.04-.07c.02-.02.05-.03.08-.03.04,0,.07.02.09.06.05.16.17.63.36,1.41.19.78.33,1.38.43,1.81.05.25.12.69.23,1.32l.06-.31c.02-.09.04-.23.07-.4.06-.41.1-.65.12-.7l.37-1.95.07-.41.09-.45.04-.24c0-.05.02-.09.05-.12.03-.03.06-.04.09-.04.03,0,.05.01.07.04.02.03.03.06.03.11v.79c0,.4.02,1,.07,1.81.04.74.06,1.34.06,1.79,0,.14,0,.36.02.66.01.38.02.65.02.8,0,.12,0,.19-.02.23-.02.03-.05.05-.09.05-.07,0-.12-.02-.14-.05Z"/>
      <path class="st0" d="M70.89,135.14v-.28c0-1.48.19-2.22.57-2.22.03,0,.06,0,.11.02.17.06.34.1.5.11.1.02.2.12.3.31.11.19.2.44.25.76.06.31.08.63.08.96l-.02.04c0,.17,0,.33,0,.47v.48c0,.27,0,.51-.02.73-.03.33-.08.61-.16.85-.05.14-.1.26-.16.36-.06.09-.14.17-.23.24-.08.06-.19.1-.31.1-.62,0-.93-.98-.93-2.93ZM72.25,137.4c.1-.3.16-.6.18-.91.02-.32.03-.57.03-.76,0-.21-.02-.53-.05-.94-.03-.46-.04-.78-.04-.94l-.03-.06.02-.04c0-.23-.07-.44-.2-.61-.13-.17-.29-.25-.47-.25-.24,0-.39.12-.44.35-.01.08-.02.19-.03.34,0,.39-.02.66-.05.8,0,.08,0,.2-.02.37l-.02.37c0,.12,0,.22,0,.31v.32c0,.25.03.54.07.86.03.24.07.44.11.61.04.16.1.3.18.42.08.13.17.19.28.19.21,0,.36-.15.46-.44Z"/>
      <path class="st0" d="M75.68,137.9s-.04-.08-.05-.14c0-.04-.02-.08-.03-.11v-.02c-.04-.25-.12-.55-.26-.92l-.14-.41s-.06-.15-.15-.41l-.06-.19c-.48-1.48-.78-2.27-.9-2.4-.04.14-.06.33-.06.56,0,.12,0,.23,0,.32v.31s0,.19,0,.19c0,.06,0,.12,0,.19,0,.12,0,.22.02.3l.02.25h-.02c0,.89.02,1.37.06,1.46v.72s.03.1.03.17c0,.04-.01.08-.04.11-.03.03-.07.05-.11.05-.11,0-.17-.14-.17-.43l.02-.25c.01-.08.02-.17.02-.26,0-.25,0-.64-.02-1.15-.02-.51-.02-.89-.02-1.15,0-.15,0-.39.02-.71.02-.31.02-.55.02-.7v-.1c0-.26.05-.43.14-.51l.02.02.08-.02s.04.02.07.05c.02.02.03.04.03.07l.02.05s0,.02,0,.04c.08.38.28.9.57,1.58.3.72.49,1.19.57,1.42.05.19.1.35.13.49.1.45.22.8.36,1.04l.02-.02c.12-1.18.18-2.62.18-4.34v-.1s-.02-.06-.02-.1c0-.11.04-.17.11-.17.05,0,.09.02.12.07.03.05.05.1.05.16v.53l-.04.06c0,.5-.03,1.33-.09,2.48-.06,1.15-.11,1.78-.17,1.88l-.13.03h0s0,0,0,0l-.08.02s-.07-.02-.09-.05Z"/>
      <path class="st0" d="M77.3,135.14v-.28c0-1.48.19-2.22.57-2.22.03,0,.06,0,.11.02.17.06.34.1.5.11.1.02.2.12.3.31.11.19.2.44.25.76.06.31.08.63.08.96l-.02.04c0,.17,0,.33,0,.47v.48c0,.27,0,.51-.02.73-.03.33-.08.61-.16.85-.05.14-.1.26-.16.36-.06.09-.14.17-.23.24-.08.06-.19.1-.31.1-.62,0-.93-.98-.93-2.93ZM78.66,137.4c.1-.3.16-.6.18-.91.02-.32.03-.57.03-.76,0-.21-.02-.53-.05-.94-.03-.46-.04-.78-.04-.94l-.03-.06.02-.04c0-.23-.07-.44-.2-.61-.13-.17-.29-.25-.47-.25-.24,0-.39.12-.44.35-.01.08-.02.19-.03.34,0,.39-.02.66-.05.8,0,.08,0,.2-.02.37l-.02.37c0,.12,0,.22,0,.31v.32c0,.25.03.54.07.86.03.24.07.44.11.61.04.16.1.3.18.42.08.13.17.19.28.19.21,0,.36-.15.46-.44Z"/>
      <path class="st0" d="M80.08,137.95c-.05-.04-.08-.08-.09-.12l.04-.06s.07,0,.14.02c.06.02.11.03.14.03.12,0,.22-.05.31-.14.09-.09.16-.21.21-.36.07-.28.11-.54.11-.78,0-.37-.11-.76-.33-1.18-.14-.24-.24-.44-.32-.58-.07-.14-.14-.31-.2-.49-.07-.22-.1-.43-.1-.63,0-.19.05-.42.14-.68.05-.12.12-.22.2-.3.09-.08.18-.12.28-.12.07,0,.14.02.2.07s.1.1.1.15c0,.04-.04.06-.1.06-.02,0-.05,0-.08-.02-.03-.02-.06-.02-.09-.02-.08,0-.15.03-.21.1s-.11.15-.14.25c-.06.2-.1.38-.1.54,0,.1.01.2.04.31,0,.03,0,.06.02.08,0,.02,0,.04,0,.05l.05.16.04.14.06.14s.03.07.05.1.04.06.05.08l.1.17s.07.11.13.23c.07.12.13.25.19.38.05.11.09.22.12.31.03.1.05.22.07.35.02.13.02.28.02.44,0,.25-.03.49-.1.72-.1.27-.23.45-.41.56-.1.06-.22.1-.35.1l-.04.02c-.06-.01-.11-.03-.17-.07ZM80.88,132.83s0,0,0,0h0s0,0,0,0Z"/>
      <path class="st0" d="M81.85,137.82c0-.06.03-.2.08-.41l.07-.27c.07-.25.11-.4.12-.45.04-.12.09-.33.15-.65.07-.33.12-.56.16-.7s.11-.37.22-.71c.13-.42.22-.76.29-1.04.06-.27.09-.52.09-.73-.08,0-.2,0-.37.02-.16.02-.29.02-.37.02-.03,0-.06-.01-.08-.04-.02-.03-.03-.06-.03-.09,0-.05.1-.08.29-.1.19-.02.39-.02.6-.02.04,0,.07,0,.1,0,.03,0,.05.02.07.03.02.03.03.06.03.09,0,.19-.07.48-.2.87-.13.4-.19.64-.19.72-.02.08-.08.32-.18.69l-.06.19c-.33,1.1-.5,1.91-.51,2.43.04.01.11.02.23.02.06,0,.12,0,.17-.02.05,0,.1,0,.17,0,.15,0,.23.04.23.1s-.06.1-.18.1c-.08,0-.16,0-.23,0l-.24-.02c-.06,0-.12.02-.17.05-.06.03-.1.04-.11.04-.08,0-.12-.04-.12-.12Z"/>
      <path class="st0" d="M84.16,137.84s.02-.12.02-.26c0-.49,0-1.21.02-2.17.02-.96.02-1.64.02-2.07l.02-.29.02-.24s.02-.06.06-.06c.03,0,.06,0,.11.02h.02c0,.12,0,.23,0,.33v1.18c0,.25,0,.54,0,.87,0,.03,0,.08,0,.18v.17c-.01.11-.02.21-.02.33,0,.12,0,.23,0,.33v.34s-.02.06-.02.06h0s0,.02,0,.02v.03s0,.08.02.11l-.02.76v.05c0,.09,0,.14,0,.16,0,.03.01.04.04.04l.41.02c.12,0,.21,0,.25,0s.07,0,.08,0h.02s.05.01.08.04.04.06.04.09c0,.06-.04.1-.13.1-.09,0-.31,0-.66,0h.02c-.05,0-.1.01-.15.02-.04,0-.09.02-.14.02-.07,0-.12-.06-.13-.18Z"/>
      <path class="st0" d="M86.03,135.14v-.28c0-1.48.19-2.22.57-2.22.03,0,.06,0,.11.02.17.06.34.1.5.11.1.02.2.12.3.31.11.19.2.44.25.76.06.31.08.63.08.96l-.02.04c0,.17,0,.33,0,.47v.48c0,.27,0,.51-.02.73-.03.33-.08.61-.16.85-.05.14-.1.26-.16.36-.06.09-.14.17-.23.24-.08.06-.19.1-.31.1-.62,0-.93-.98-.93-2.93ZM87.39,137.4c.1-.3.16-.6.18-.91.02-.32.03-.57.03-.76,0-.21-.02-.53-.05-.94-.03-.46-.04-.78-.04-.94l-.03-.06.02-.04c0-.23-.07-.44-.2-.61-.13-.17-.29-.25-.47-.25-.24,0-.39.12-.44.35-.01.08-.02.19-.03.34,0,.39-.02.66-.05.8,0,.08,0,.2-.02.37l-.02.37c0,.12,0,.22,0,.31v.32c0,.25.03.54.07.86.03.24.07.44.11.61.04.16.1.3.18.42.08.13.17.19.28.19.21,0,.36-.15.46-.44ZM86.84,132.44s-.04-.05-.04-.08c0-.02.07-.08.22-.21l.25-.21.21-.17c.18-.14.28-.22.29-.23.12,0,.17.04.17.12l-.02.13c-.28.13-.61.35-1,.68-.04,0-.07-.01-.1-.03Z"/>
      <path class="st0" d="M90.11,138.02c-.06-.07-.13-.25-.21-.55-.07-.3-.14-.63-.21-1-.04-.3-.1-.6-.18-.9-.06-.26-.12-.4-.18-.4h-.02c-.12,0-.17.04-.17.11,0,.38.02.96.06,1.74.02.48.04.76.07.84l-.06.13h-.11l-.06-.06c-.08-2.45-.13-4.12-.13-5.01,0-.06,0-.11.01-.14s.03-.07.05-.1c.02-.04.06-.06.11-.06.27,0,.49.07.65.2.17.13.25.32.25.57v.58c0,.1-.03.24-.1.41s-.14.33-.22.47l-.1.2c.06.27.17.76.35,1.46.17.7.27,1.08.28,1.12,0,0,.01.02.02.04,0,.02.03.05.05.1.04.07.06.14.06.19,0,.07-.03.11-.09.11l-.11-.04ZM89.44,134.82c.08-.1.14-.23.19-.39.08-.32.13-.58.13-.77,0-.12,0-.22-.02-.3-.01-.08-.04-.16-.07-.25-.06-.19-.21-.28-.45-.28-.03,0-.05.02-.06.07-.02.05-.02.09-.02.14,0,.36,0,.68.02.96,0,.29,0,.61,0,.96l.02.02c.1,0,.19-.05.27-.15Z"/>
      <path class="st0" d="M91.1,135.14v-.28c0-1.48.19-2.22.57-2.22.03,0,.06,0,.11.02.17.06.34.1.5.11.1.02.2.12.3.31.11.19.2.44.25.76.06.31.08.63.08.96l-.02.04c0,.17,0,.33,0,.47v.48c0,.27,0,.51-.02.73-.03.33-.08.61-.16.85-.05.14-.1.26-.16.36-.06.09-.14.17-.23.24-.08.06-.19.1-.31.1-.62,0-.93-.98-.93-2.93ZM92.46,137.4c.1-.3.16-.6.18-.91.02-.32.03-.57.03-.76,0-.21-.02-.53-.05-.94-.03-.46-.04-.78-.04-.94l-.03-.06.02-.04c0-.23-.07-.44-.2-.61-.13-.17-.29-.25-.47-.25-.24,0-.39.12-.44.35-.01.08-.02.19-.03.34,0,.39-.02.66-.05.8,0,.08,0,.2-.02.37l-.02.37c0,.12,0,.22,0,.31v.32c0,.25.03.54.07.86.03.24.07.44.11.61.04.16.1.3.18.42.08.13.17.19.28.19.21,0,.36-.15.46-.44ZM91.9,132.44s-.04-.05-.04-.08c0-.02.07-.08.22-.21l.25-.21.21-.17c.18-.14.28-.22.29-.23.12,0,.18.04.18.12l-.02.13c-.28.13-.61.35-1,.68-.04,0-.07-.01-.1-.03Z"/>
      <path class="st0" d="M93.96,137.84s.02-.12.02-.26c0-.49,0-1.21.02-2.17.02-.96.02-1.64.02-2.07l.02-.29.02-.24s.02-.06.06-.06c.03,0,.06,0,.11.02h.02c0,.12,0,.23,0,.33v1.18c0,.25,0,.54,0,.87,0,.03,0,.08,0,.18v.17c-.01.11-.02.21-.02.33,0,.12,0,.23,0,.33v.34s-.02.06-.02.06h0s0,.02,0,.02v.03s0,.08.02.11l-.02.76v.05c0,.09,0,.14,0,.16,0,.03.01.04.04.04l.41.02c.12,0,.21,0,.25,0s.07,0,.08,0h.02s.05.01.08.04.04.06.04.09c0,.06-.04.1-.13.1-.09,0-.31,0-.66,0h.02c-.05,0-.1.01-.15.02-.04,0-.09.02-.14.02-.07,0-.12-.06-.13-.18Z"/>
    </g>
  </g>
</svg>